<svg xmlns="http://www.w3.org/2000/svg" xmlns:xlink="http://www.w3.org/1999/xlink" fill="none" version="1.1" width="63.9931640625" height="64.00067138671875" viewBox="0 0 63.9931640625 64.00067138671875"><g><g><path d="M63.0355,39.7416C58.7615,56.8846,41.3985,67.3176,24.2535,63.0426C7.11548,58.7686,-3.31754,41.4046,0.958466,24.2626C5.23047,7.11761,22.5935,-3.31641,39.7335,0.957611C56.8775,5.2316,67.3094,22.5976,63.0355,39.7416Z" fill="#F7931A" fill-opacity="1" style="mix-blend-mode:passthrough"/></g><g><path d="M46.105441650390624,27.441604248046875C46.742441650390624,23.183604248046876,43.50044165039063,20.894624248046874,39.06744165039062,19.367614248046877L40.50544165039062,13.599614248046874L36.99444165039063,12.724614248046874L35.59444165039062,18.340604248046876C34.671441650390626,18.110594248046876,33.723441650390626,17.893614248046873,32.78154165039062,17.678624248046873L34.191541650390626,12.025604248046875L30.682541650390625,11.150604248046875L29.243541650390625,16.916594248046877C28.479541650390622,16.742584248046875,27.729541650390622,16.570584248046874,27.001541650390624,16.389584248046873L27.005541650390626,16.371584248046876L22.163481650390626,15.162564248046875L21.229491650390624,18.912564248046877Q23.834501650390624,19.509554248046875,23.779481650390625,19.546574248046873C25.201481650390626,19.901584248046873,25.458461650390625,20.842564248046877,25.415461650390625,21.588604248046877L23.777461650390627,28.159604248046875C23.875461650390626,28.184604248046874,24.002471650390625,28.220604248046875,24.142451650390626,28.276604248046876C24.025451650390625,28.247604248046876,23.900451650390625,28.215604248046876,23.771451650390624,28.184604248046874L21.475461650390624,37.38960424804688C21.301451650390625,37.821604248046874,20.860471650390625,38.469504248046874,19.866451650390626,38.223604248046875Q19.901461650390626,38.27460424804687,17.314451650390623,37.586604248046875L15.571441650390625,41.60560424804687L20.140441650390624,42.744604248046876C20.990451650390625,42.95760424804688,21.823451650390624,43.180604248046876,22.643431650390625,43.39060424804688L21.190431650390625,49.22460424804687L24.697421650390623,50.09960424804687L26.136441650390623,44.327604248046875C27.094441650390625,44.58760424804687,28.024441650390624,44.827604248046875,28.934441650390625,45.053604248046874L27.500441650390627,50.79860424804688L31.011441650390623,51.67360424804688L32.464441650390626,45.85060424804688C38.45144165039062,46.98360424804687,42.95344165039063,46.52660424804687,44.848441650390626,41.11160424804687C46.37544165039063,36.751604248046874,44.772441650390626,34.23660424804687,41.62244165039063,32.59660424804687C43.916441650390624,32.06760424804688,45.644441650390625,30.558604248046876,46.105441650390624,27.441604248046875ZM38.083441650390625,38.690604248046874C36.998441650390625,43.050604248046874,29.657441650390624,40.693604248046874,27.277441650390625,40.10260424804687L29.205441650390625,32.373604248046874C31.585441650390624,32.967604248046875,39.217441650390626,34.14360424804687,38.083441650390625,38.690604248046874ZM39.169441650390624,27.378604248046877C38.17944165039063,31.344604248046874,32.06944165039063,29.329604248046873,30.087441650390623,28.835604248046874L31.835441650390624,21.825604248046876C33.81744165039062,22.319604248046875,40.20044165039063,23.241604248046876,39.169441650390624,27.378604248046877Z" fill="#FFFFFF" fill-opacity="1" style="mix-blend-mode:passthrough"/></g></g></svg>