<svg width="32" height="32" viewBox="0 0 32 32" fill="none" xmlns="http://www.w3.org/2000/svg">
<rect width="32" height="32" rx="16" fill="#1461A3"/>
<path d="M13.1924 5.3335C15.0685 5.3335 16.5956 6.85971 16.5957 8.73584C16.5957 9.23064 16.5299 9.68085 16.4023 10.0845C16.7885 10.1336 17.166 10.2092 17.5342 10.3091C17.9701 8.63213 19.497 7.39018 21.3086 7.39014C22.8591 7.39014 24.262 8.30811 24.8828 9.729H24.8838C25.1181 10.2657 24.8726 10.8909 24.3359 11.1255C23.7993 11.3597 23.1749 11.1138 22.9404 10.5776C22.6566 9.9293 22.0159 9.51025 21.3086 9.51025C20.3754 9.51031 19.6084 10.2336 19.5361 11.1489C22.0104 12.5933 23.6766 15.2765 23.6768 18.3423C23.6768 22.9323 19.7586 26.6665 15.3525 26.6665C10.9467 26.6664 7.32977 23.2259 7.04688 18.8901C7.03509 18.8271 7.02832 18.7619 7.02832 18.6958V9.07178C7.02832 8.48637 7.50349 8.01132 8.08887 8.01123C8.67422 8.01123 9.14925 8.48548 9.14941 9.0708V12.7983C10.1359 11.6955 11.411 10.8562 12.8555 10.4009C12.8764 10.3942 12.8975 10.387 12.9189 10.3813C13.1421 10.3128 13.3698 10.2542 13.6006 10.2046C14.2347 9.96231 14.4746 9.52926 14.4746 8.73584C14.4745 8.02911 13.8991 7.45361 13.1924 7.45361C12.6072 7.45344 12.133 6.97926 12.1328 6.39404C12.1328 5.80869 12.6071 5.33367 13.1924 5.3335ZM15.3525 12.1392C14.9392 12.1392 14.5353 12.18 14.1445 12.2573C13.9336 12.3269 13.7082 12.3851 13.4707 12.4312C10.9677 13.2303 9.14941 15.5774 9.14941 18.3423C9.14944 21.7628 11.9321 24.5453 15.3525 24.5454C18.7731 24.5454 21.5556 21.7628 21.5557 18.3423C21.5557 14.9217 18.7731 12.1392 15.3525 12.1392ZM15.3535 16.1821C16.5464 16.1821 17.5137 17.1493 17.5137 18.3423C17.5136 19.5352 16.5464 20.5024 15.3535 20.5024C14.1607 20.5024 13.1934 19.5351 13.1934 18.3423C13.1934 17.1494 14.1607 16.1822 15.3535 16.1821Z" fill="white"/>
</svg>
