<svg width="18" height="18" viewBox="0 0 18 18" fill="none" xmlns="http://www.w3.org/2000/svg">
<rect width="18" height="18" rx="9" fill="#FF2B64"/>
<g clip-path="url(#clip0_14218_2249)">
<path fill-rule="evenodd" clip-rule="evenodd" d="M7.06734 6.15496L11.2027 10.2904L11.2027 7.07832C11.2022 7.01232 11.2147 6.94687 11.2396 6.88573C11.2645 6.8246 11.3012 6.769 11.3477 6.72214C11.3942 6.67528 11.4495 6.63808 11.5104 6.6127C11.5714 6.58732 11.6367 6.57425 11.7027 6.57425C11.7687 6.57425 11.8341 6.58732 11.895 6.6127C11.9559 6.63808 12.0112 6.67528 12.0577 6.72214C12.1042 6.769 12.1409 6.8246 12.1658 6.88573C12.1907 6.94687 12.2032 7.01232 12.2027 7.07832L12.2027 11.4977C12.203 11.4992 12.2021 11.5007 12.2021 11.5025C12.2011 11.6004 12.1714 11.6959 12.1166 11.7771C12.0618 11.8583 11.9844 11.9216 11.8939 11.9591C11.8341 11.9836 11.7717 11.996 11.7077 11.9968L11.7027 11.9977L7.2833 11.9977C7.14512 11.9974 7.02049 11.9412 6.93033 11.851C6.86043 11.7811 6.81282 11.692 6.79352 11.5951C6.77422 11.4981 6.7841 11.3976 6.82191 11.3063C6.85971 11.2149 6.92375 11.1368 7.00593 11.0819C7.08811 11.0269 7.18473 10.9975 7.28359 10.9975L10.4953 10.9972L6.35993 6.86177C6.26617 6.768 6.21349 6.64083 6.21349 6.50822C6.21349 6.37561 6.26617 6.24843 6.35993 6.15466C6.4537 6.0609 6.58088 6.00822 6.71349 6.00822C6.8461 6.00822 6.97327 6.0609 7.06704 6.15466" fill="white"/>
</g>
<defs>
<clipPath id="clip0_14218_2249">
<rect width="10" height="10" fill="white" transform="matrix(1 0 0 -1 4 14)"/>
</clipPath>
</defs>
</svg>
