<svg width="12" height="12" viewBox="0 0 12 12" fill="none" xmlns="http://www.w3.org/2000/svg">
<path fill-rule="evenodd" clip-rule="evenodd" d="M2.05898 3.09999H10.059C10.2181 3.09999 10.3707 3.03678 10.4832 2.92426C10.5958 2.81174 10.659 2.65912 10.659 2.49999C10.659 2.34086 10.5958 2.18825 10.4832 2.07573C10.3707 1.96321 10.2181 1.89999 10.059 1.89999H2.05898C1.89985 1.89999 1.74724 1.96321 1.63472 2.07573C1.5222 2.18825 1.45898 2.34086 1.45898 2.49999C1.45898 2.65912 1.5222 2.81174 1.63472 2.92426C1.74724 3.03678 1.89985 3.09999 2.05898 3.09999M10.059 5.39999H2.05898C1.89985 5.39999 1.74724 5.46321 1.63472 5.57573C1.5222 5.68825 1.45898 5.84086 1.45898 5.99999C1.45898 6.15912 1.5222 6.31174 1.63472 6.42426C1.74724 6.53678 1.89985 6.59999 2.05898 6.59999H10.059C10.2181 6.59999 10.3707 6.53678 10.4832 6.42426C10.5958 6.31174 10.659 6.15912 10.659 5.99999C10.659 5.84086 10.5958 5.68825 10.4832 5.57573C10.3707 5.46321 10.2181 5.39999 10.059 5.39999ZM10.059 8.89999H2.05898C1.98019 8.89999 1.90217 8.91551 1.82937 8.94567C1.75658 8.97582 1.69044 9.02001 1.63472 9.07573C1.57901 9.13144 1.53481 9.19759 1.50466 9.27038C1.4745 9.34318 1.45898 9.4212 1.45898 9.49999C1.45898 9.57879 1.4745 9.65681 1.50466 9.7296C1.53481 9.8024 1.57901 9.86854 1.63472 9.92426C1.69044 9.97997 1.75658 10.0242 1.82937 10.0543C1.90217 10.0845 1.98019 10.1 2.05898 10.1H10.059C10.1378 10.1 10.2158 10.0845 10.2886 10.0543C10.3614 10.0242 10.4275 9.97997 10.4832 9.92426C10.539 9.86854 10.5832 9.8024 10.6133 9.7296C10.6435 9.65681 10.659 9.57879 10.659 9.49999C10.659 9.4212 10.6435 9.34318 10.6133 9.27038C10.5832 9.19759 10.539 9.13144 10.4832 9.07573C10.4275 9.02001 10.3614 8.97582 10.2886 8.94567C10.2158 8.91551 10.1378 8.89999 10.059 8.89999" fill="white"/>
</svg>
