<svg width="24" height="24" viewBox="0 0 24 24" fill="none" xmlns="http://www.w3.org/2000/svg">
<path fill-rule="evenodd" clip-rule="evenodd" d="M14.6687 11.112C14.5098 11.1157 14.3518 11.0876 14.2039 11.0294C14.0561 10.9711 13.9214 10.8839 13.8077 10.7729C13.6941 10.6618 13.6038 10.5291 13.5421 10.3827C13.4805 10.2362 13.4488 10.0789 13.4488 9.91999C13.4489 9.76108 13.4807 9.60379 13.5424 9.45736C13.6041 9.31092 13.6945 9.17831 13.8082 9.06731C13.9219 8.95632 14.0567 8.86918 14.2046 8.81102C14.3525 8.75287 14.5105 8.72486 14.6693 8.72867C14.9805 8.73611 15.2764 8.86498 15.4938 9.08772C15.7112 9.31046 15.8329 9.6094 15.8328 9.92066C15.8327 10.2319 15.7109 10.5308 15.4934 10.7534C15.2758 10.976 14.9798 11.1047 14.6687 11.112ZM13.5193 15.1867H9.50333C9.36174 15.1869 9.22271 15.1489 9.10086 15.0768C8.97902 15.0047 8.87886 14.901 8.81091 14.7768C8.74297 14.6526 8.70975 14.5123 8.71475 14.3708C8.71975 14.2293 8.76279 14.0918 8.83933 13.9727L10.848 10.8427C10.9193 10.7313 11.0174 10.6397 11.1334 10.5762C11.2494 10.5128 11.3795 10.4795 11.5117 10.4795C11.6439 10.4795 11.774 10.5128 11.8899 10.5762C12.0059 10.6397 12.1041 10.7313 12.1753 10.8427L14.1827 13.9727C14.2592 14.0917 14.3022 14.2292 14.3072 14.3707C14.3123 14.5121 14.2791 14.6523 14.2112 14.7765C14.1434 14.9007 14.0433 15.0043 13.9216 15.0765C13.7998 15.1487 13.6609 15.1867 13.5193 15.1867ZM16.858 5.5H7.142C6.70651 5.5 6.28887 5.673 5.98093 5.98093C5.673 6.28887 5.5 6.70651 5.5 7.142V16.858C5.5 17.2935 5.673 17.7111 5.98093 18.0191C6.28887 18.327 6.70651 18.5 7.142 18.5H16.858C17.2935 18.5 17.7111 18.327 18.0191 18.0191C18.327 17.7111 18.5 17.2935 18.5 16.858V7.142C18.5 6.70651 18.327 6.28887 18.0191 5.98093C17.7111 5.673 17.2935 5.5 16.858 5.5Z" fill="white"/>
</svg>
