<svg width="18" height="18" viewBox="0 0 18 18" fill="none" xmlns="http://www.w3.org/2000/svg">
<rect width="18" height="18" rx="9" fill="#3FB185"/>
<g clip-path="url(#clip0_14218_2211)">
<path fill-rule="evenodd" clip-rule="evenodd" d="M7.06734 11.845L11.2027 7.70965L11.2027 10.9217C11.2022 10.9877 11.2147 11.0531 11.2396 11.1143C11.2645 11.1754 11.3012 11.231 11.3477 11.2779C11.3942 11.3247 11.4495 11.3619 11.5104 11.3873C11.5714 11.4127 11.6367 11.4257 11.7027 11.4257C11.7687 11.4257 11.8341 11.4127 11.895 11.3873C11.9559 11.3619 12.0112 11.3247 12.0577 11.2779C12.1042 11.231 12.1409 11.1754 12.1658 11.1143C12.1907 11.0531 12.2032 10.9877 12.2027 10.9217L12.2027 6.50226C12.203 6.50079 12.2021 6.49931 12.2021 6.49755C12.2011 6.39961 12.1714 6.30412 12.1166 6.22294C12.0618 6.14175 11.9844 6.07844 11.8939 6.04087C11.8341 6.01642 11.7717 6.00404 11.7077 6.00316L11.7027 6.00228L7.2833 6.00228C7.14512 6.00257 7.02049 6.05885 6.93033 6.149C6.86043 6.21891 6.81282 6.30797 6.79352 6.40494C6.77422 6.5019 6.7841 6.6024 6.82191 6.69375C6.85971 6.7851 6.92375 6.86319 7.00593 6.91815C7.08811 6.97311 7.18473 7.00248 7.28359 7.00254L10.4953 7.00283L6.35993 11.1382C6.26617 11.232 6.21349 11.3592 6.21349 11.4918C6.21349 11.6244 6.26617 11.7516 6.35993 11.8453C6.4537 11.9391 6.58088 11.9918 6.71349 11.9918C6.8461 11.9918 6.97327 11.9391 7.06704 11.8453" fill="white"/>
</g>
<defs>
<clipPath id="clip0_14218_2211">
<rect width="10" height="10" fill="white" transform="translate(4 4)"/>
</clipPath>
</defs>
</svg>
