<svg xmlns="http://www.w3.org/2000/svg" viewBox="0 0 24 24" width="24" height="24">
  <path fill="#FFFFFF" d="M21.727 10.909c0-4.377-4.389-7.937-9.782-7.937-5.392 0-9.782 3.56-9.782 7.937 0 3.925 3.49 7.22 8.204 7.841.319.069.753.21.863.482.099.248.065.636.032.886 0 0-.115.694-.14.842-.043.248-.198.97.853.529 1.05-.441 5.675-3.342 7.741-5.722 1.427-1.565 2.011-3.155 2.011-4.858z"/>
  <path fill="#6bbd5b" d="M10.093 13.046h-2.62a.371.371 0 0 1-.371-.371v-4.09c0-.205.166-.372.371-.372.205 0 .372.167.372.372v3.719h2.248a.372.372 0 0 1 0 .742zm1.5-4.833a.372.372 0 0 0-.743 0v4.462c0 .205.166.371.372.371a.37.37 0 0 0 .371-.371V8.213zm4.16 0a.372.372 0 0 0-.743 0v2.64l-2.249-3.035a.403.403 0 0 0-.068-.074l-.001-.001a.365.365 0 0 0-.92-.064l-.025-.008a.356.356 0 0 0-.086-.012h-.004a.37.37 0 0 0-.371.371v4.462a.372.372 0 0 0 .743 0v-2.64l2.251 3.04a.384.384 0 0 0 .072.07l.004.003a.37.37 0 0 0 .084.047l.012.004a.37.37 0 0 0 .121.021h.004a.37.37 0 0 0 .371-.371V8.213z"/>
</svg> 