<?xml version="1.0" encoding="utf-8"?>
<svg xmlns="http://www.w3.org/2000/svg" width="159" height="44" viewBox="0 0 159 44" fill="none"> <g opacity="0.8"> <path opacity="0.8" d="M37.0296 7.39796L37.2562 8.72497C37.2562 8.8008 37.4828 10.2416 37.4828 12.4785C37.4828 14.6017 37.294 17.5212 36.5009 20.706C35.7456 23.7392 34.386 27.379 31.9311 30.943C29.4763 34.507 25.8884 37.9951 20.7143 40.8008L20.0723 41.142L19.4303 40.8008C14.2184 37.9951 10.6683 34.469 8.21348 30.943C5.75863 27.379 4.39902 23.7771 3.64368 20.706C2.85058 17.5212 2.66174 14.6017 2.66174 12.4785C2.66174 10.2416 2.88835 8.8008 2.88835 8.72497L3.11495 7.39796C3.19048 6.94298 2.88835 6.52592 2.43514 6.45009C1.98194 6.37426 1.5665 6.67758 1.49097 7.13255L1.26437 8.45957C1.2266 8.61123 1 10.1278 1 12.4785C1 14.7155 1.2266 17.7487 2.05747 21.1231C2.77505 24.3458 4.21019 28.1752 6.81611 31.9288C9.42202 35.6823 13.1987 39.398 18.6372 42.3174L19.6569 42.8861C19.9212 43.0378 20.1856 43.0378 20.45 42.8861L21.4697 42.3174C26.9081 39.398 30.6848 35.6823 33.2907 31.9288C35.8966 28.1752 37.3318 24.3458 38.1249 21.161C38.9558 17.7866 39.1824 14.7913 39.1824 12.5164C39.1824 10.1657 38.9558 8.64914 38.918 8.49748L38.6914 7.17047C38.6159 6.71549 38.2004 6.41217 37.7472 6.488C37.2562 6.52592 36.9541 6.94298 37.0296 7.39796Z" fill="#171921" stroke="#171921" stroke-width="0.529384" stroke-miterlimit="10"/> <path opacity="0.8" d="M7.64702 6.48815L20.0723 2.69668L32.762 6.6019C33.2152 6.75356 33.6684 6.48815 33.8195 6.03318C33.9706 5.5782 33.7062 5.12322 33.253 4.97156L20.2989 1.02844C20.1479 0.99052 19.959 0.99052 19.808 1.02844L7.15605 4.89574C6.70284 5.04739 6.47624 5.50237 6.58954 5.95735C6.74061 6.37441 7.19381 6.63981 7.64702 6.48815Z" fill="#171921" stroke="#171921" stroke-width="0.529384" stroke-miterlimit="10"/> <path opacity="0.8" d="M1.52875 7.66442L19.317 42.508C19.468 42.7734 19.7324 42.963 20.0345 42.963C20.3367 42.963 20.6388 42.8113 20.7899 42.508L31.629 22.1478V22.1099L38.6159 7.62651C38.8047 7.20945 38.6536 6.71656 38.2382 6.52698C37.8228 6.33741 37.3318 6.48907 37.143 6.90613L30.1561 21.3895L20.0723 40.3469L3.00166 6.90613C2.77506 6.48907 2.28409 6.33741 1.86865 6.52698C1.49098 6.75447 1.30215 7.24736 1.52875 7.66442Z" fill="#171921" stroke="#171921" stroke-width="0.529384" stroke-miterlimit="10"/> <path opacity="0.8" d="M10.0263 23.1702H29.8162C30.2694 23.1702 30.647 22.7911 30.647 22.3361C30.647 21.8811 30.2694 21.502 29.8162 21.502H10.0263C9.5731 21.502 9.19543 21.8811 9.19543 22.3361C9.19543 22.7911 9.5731 23.1702 10.0263 23.1702Z" fill="#171921" stroke="#171921" stroke-width="0.529384" stroke-miterlimit="10"/> <path opacity="0.8" d="M60.8029 10.0658C60.8029 11.0404 60.6269 11.8826 60.275 12.5924C59.9231 13.3023 59.4403 13.8497 58.8267 14.2347C58.2131 14.6197 57.5123 14.8123 56.7242 14.8123C55.9362 14.8123 55.2353 14.6197 54.6217 14.2347C54.0081 13.8497 53.5254 13.3023 53.1734 12.5924C52.8215 11.8826 52.6456 11.0404 52.6456 10.0658C52.6456 9.0913 52.8215 8.24909 53.1734 7.53924C53.5254 6.82938 54.0081 6.28195 54.6217 5.89695C55.2353 5.51194 55.9362 5.31944 56.7242 5.31944C57.5123 5.31944 58.2131 5.51194 58.8267 5.89695C59.4403 6.28195 59.9231 6.82938 60.275 7.53924C60.6269 8.24909 60.8029 9.0913 60.8029 10.0658ZM59.72 10.0658C59.72 9.26575 59.5862 8.59049 59.3185 8.04005C59.0538 7.48961 58.6944 7.07302 58.2402 6.79028C57.789 6.50754 57.2837 6.36617 56.7242 6.36617C56.1648 6.36617 55.6579 6.50754 55.2037 6.79028C54.7526 7.07302 54.3931 7.48961 54.1254 8.04005C53.8607 8.59049 53.7284 9.26575 53.7284 10.0658C53.7284 10.8659 53.8607 11.5412 54.1254 12.0916C54.3931 12.6421 54.7526 13.0587 55.2037 13.3414C55.6579 13.6241 56.1648 13.7655 56.7242 13.7655C57.2837 13.7655 57.789 13.6241 58.2402 13.3414C58.6944 13.0587 59.0538 12.6421 59.3185 12.0916C59.5862 11.5412 59.72 10.8659 59.72 10.0658ZM71.5361 5.44577V14.6859H70.4532L65.4181 7.43096H65.3278V14.6859H64.2089V5.44577H65.2918L70.345 12.7188H70.4352V5.44577H71.5361ZM80.3976 14.6859V5.44577H83.6281C84.2718 5.44577 84.8027 5.55706 85.2208 5.77964C85.6388 5.99921 85.9502 6.29549 86.1547 6.66846C86.3592 7.03843 86.4615 7.449 86.4615 7.90018C86.4615 8.29722 86.3908 8.62508 86.2494 8.88375C86.1111 9.14243 85.9276 9.34696 85.699 9.49736C85.4734 9.64775 85.2283 9.75904 84.9636 9.83123V9.92147C85.2463 9.93951 85.5306 10.0388 85.8163 10.2192C86.1021 10.3997 86.3412 10.6584 86.5337 10.9953C86.7262 11.3322 86.8224 11.7442 86.8224 12.2315C86.8224 12.6947 86.7172 13.1113 86.5066 13.4813C86.2961 13.8512 85.9637 14.1445 85.5095 14.3611C85.0553 14.5776 84.4643 14.6859 83.7364 14.6859H80.3976ZM81.5166 13.6933H83.7364C84.4673 13.6933 84.9861 13.552 85.2929 13.2692C85.6028 12.9835 85.7577 12.6376 85.7577 12.2315C85.7577 11.9187 85.6779 11.6299 85.5185 11.3652C85.3591 11.0975 85.132 10.884 84.8372 10.7246C84.5425 10.5621 84.1936 10.4809 83.7905 10.4809H81.5166V13.6933ZM81.5166 9.50638H83.592C83.9289 9.50638 84.2327 9.44021 84.5034 9.30786C84.7771 9.17552 84.9937 8.98903 85.1531 8.7484C85.3155 8.50777 85.3967 8.22503 85.3967 7.90018C85.3967 7.49412 85.2553 7.14972 84.9726 6.86698C84.6899 6.58123 84.2417 6.43836 83.6281 6.43836H81.5166V9.50638ZM97.982 10.0658C97.982 11.0404 97.806 11.8826 97.4541 12.5924C97.1022 13.3023 96.6194 13.8497 96.0058 14.2347C95.3922 14.6197 94.6914 14.8123 93.9033 14.8123C93.1153 14.8123 92.4144 14.6197 91.8008 14.2347C91.1872 13.8497 90.7045 13.3023 90.3526 12.5924C90.0006 11.8826 89.8247 11.0404 89.8247 10.0658C89.8247 9.0913 90.0006 8.24909 90.3526 7.53924C90.7045 6.82938 91.1872 6.28195 91.8008 5.89695C92.4144 5.51194 93.1153 5.31944 93.9033 5.31944C94.6914 5.31944 95.3922 5.51194 96.0058 5.89695C96.6194 6.28195 97.1022 6.82938 97.4541 7.53924C97.806 8.24909 97.982 9.0913 97.982 10.0658ZM96.8992 10.0658C96.8992 9.26575 96.7653 8.59049 96.4976 8.04005C96.2329 7.48961 95.8735 7.07302 95.4193 6.79028C94.9681 6.50754 94.4628 6.36617 93.9033 6.36617C93.3439 6.36617 92.8371 6.50754 92.3829 6.79028C91.9317 7.07302 91.5722 7.48961 91.3045 8.04005C91.0399 8.59049 90.9075 9.26575 90.9075 10.0658C90.9075 10.8659 91.0399 11.5412 91.3045 12.0916C91.5722 12.6421 91.9317 13.0587 92.3829 13.3414C92.8371 13.6241 93.3439 13.7655 93.9033 13.7655C94.4628 13.7655 94.9681 13.6241 95.4193 13.3414C95.8735 13.0587 96.2329 12.6421 96.4976 12.0916C96.7653 11.5412 96.8992 10.8659 96.8992 10.0658ZM101.333 14.6859H100.16L103.553 5.44577H104.708L108.1 14.6859H106.927L104.166 6.90759H104.094L101.333 14.6859ZM101.766 11.0765H106.494V12.0691H101.766V11.0765ZM111.064 14.6859V5.44577H114.187C114.908 5.44577 115.501 5.56909 115.964 5.81573C116.427 6.05937 116.77 6.39475 116.993 6.82186C117.215 7.24898 117.327 7.73475 117.327 8.27917C117.327 8.8236 117.215 9.30636 116.993 9.72746C116.77 10.1486 116.429 10.4794 115.969 10.7201C115.508 10.9577 114.92 11.0765 114.205 11.0765H111.678V10.0658H114.168C114.662 10.0658 115.059 9.99365 115.36 9.84928C115.663 9.7049 115.883 9.50037 116.018 9.23567C116.157 8.96797 116.226 8.64914 116.226 8.27917C116.226 7.90921 116.157 7.58586 116.018 7.30914C115.88 7.03241 115.659 6.81886 115.355 6.66846C115.051 6.51506 114.65 6.43836 114.15 6.43836H112.183V14.6859H111.064ZM115.414 10.5351L117.688 14.6859H116.388L114.15 10.5351H115.414ZM123.567 14.6859H120.716V5.44577H123.694C124.59 5.44577 125.357 5.63075 125.995 6.00072C126.632 6.36768 127.121 6.89556 127.461 7.58436C127.801 8.27015 127.971 9.0913 127.971 10.0478C127.971 11.0103 127.799 11.839 127.456 12.5338C127.114 13.2256 126.614 13.758 125.959 14.131C125.303 14.5009 124.506 14.6859 123.567 14.6859ZM121.835 13.6933H123.495C124.259 13.6933 124.892 13.5459 125.395 13.2512C125.897 12.9564 126.271 12.5368 126.518 11.9924C126.765 11.448 126.888 10.7998 126.888 10.0478C126.888 9.30185 126.766 8.65967 126.523 8.12126C126.279 7.57985 125.915 7.16476 125.431 6.876C124.946 6.58424 124.343 6.43836 123.621 6.43836H121.835V13.6933Z" fill="#171921" stroke="#171921" stroke-width="0.265807" stroke-miterlimit="10"/> <g transform="translate(138.35 10.2)"> <circle r="3" class="ctk-halo" fill="#40B884"/> </g> <g transform="translate(138.35 10.2)"> <circle r="3" class="ctk-dot" fill="#40B884"/> </g> <path opacity="0.8" d="M64.814 24.498H54.0367C53.8471 24.498 53.6891 24.5615 53.531 24.7201C53.4046 24.8471 53.3098 25.0374 53.3098 25.2278V33.8897C53.3098 34.0801 53.373 34.2387 53.531 34.3974C53.6575 34.5243 53.8471 34.6195 54.0367 34.6195H64.814V36.079H54.0367C53.4362 36.079 52.9305 35.8569 52.5197 35.4444C52.1088 35.032 51.8876 34.5243 51.8876 33.9215V25.1961C51.8876 24.5932 52.1088 24.0856 52.5197 23.6731C52.9305 23.2606 53.4362 23.0385 54.0367 23.0385H64.814V24.498Z" fill="#171921" stroke="#171921" stroke-width="0.265807" stroke-miterlimit="10"/> <path opacity="0.8" d="M85.0412 23.0385V24.498H74.6748V28.8131H83.0185V30.3044H74.6748V34.6195H85.0412V36.079H73.2209V23.0703H85.0412V23.0385Z" fill="#171921" stroke="#171921" stroke-width="0.265807" stroke-miterlimit="10"/> <path opacity="0.8" d="M106.406 25.1961V29.0035C106.406 29.6064 106.185 30.114 105.774 30.5265C105.363 30.939 104.858 31.1611 104.257 31.1611H102.266L106.343 36.0156H104.415L100.338 31.1928H95.5973C95.5025 31.1928 95.2496 31.1611 94.902 31.1293V36.0473H93.4482V23.0385H104.257C104.858 23.0385 105.363 23.2606 105.774 23.6731C106.185 24.0856 106.406 24.5932 106.406 25.1961ZM95.5973 29.7015H104.225C104.415 29.7015 104.573 29.6381 104.7 29.5112C104.826 29.3843 104.889 29.2256 104.889 29.0352V25.2278C104.889 25.0374 104.826 24.8788 104.7 24.7201C104.573 24.5932 104.415 24.498 104.225 24.498H95.5973C95.4077 24.498 95.2496 24.5615 95.0916 24.7201C94.9652 24.8471 94.8704 25.0374 94.8704 25.2278V29.0352C94.8704 29.2256 94.9336 29.3843 95.0916 29.5112C95.218 29.6381 95.4077 29.7015 95.5973 29.7015Z" fill="#171921" stroke="#171921" stroke-width="0.265807" stroke-miterlimit="10"/> <path opacity="0.8" d="M114.15 23.0385H127.108V24.498H121.355V36.0473H119.902V24.498H114.15V23.0385Z" fill="#171921" stroke="#171921" stroke-width="0.265807" stroke-miterlimit="10"/> <path opacity="0.8" d="M134.946 36.0473V23.0385H136.399V36.0473H134.946Z" fill="#171921" stroke="#171921" stroke-width="0.265807" stroke-miterlimit="10"/> <path opacity="0.8" d="M155.868 23.0385H157.733L152.328 29.5429L157.764 36.0473H155.868L151.032 30.2727H146.861V36.0473H145.375V23.0385H146.861V28.8131H151.032L155.868 23.0385Z" fill="#171921" stroke="#171921" stroke-width="0.265807" stroke-miterlimit="10"/> </g> <style> path { opacity: 1; stroke: #fff; fill: #fff; } .ctk-halo { animation: ctk-halo-pulse-loader 1.5s infinite; } @keyframes ctk-halo-pulse-loader { 0% { transform: scale(1); opacity: 0.9; } 80% { transform: scale(3); opacity: 0; } 100% { transform: scale(3); opacity: 0; } } .ctk-dot { animation: ctk-dot-pulse-loader 1.5s infinite; } @keyframes ctk-dot-pulse-loader { 0% { transform: scale(1); } 20% { transform: scale(1.1); } 80% { transform: scale(1); } } </style> </svg>