<svg width="24" height="24" viewBox="0 0 24 24" fill="none" xmlns="http://www.w3.org/2000/svg">
<rect width="24" height="24" rx="12" fill="white" fill-opacity="0.02"/>
<rect x="0.5" y="0.5" width="23" height="23" rx="11.5" stroke="white" stroke-opacity="0.02"/>
<path fill-rule="evenodd" clip-rule="evenodd" d="M10.3124 16.05C10.1399 16.05 9.9674 15.9825 9.8324 15.855C9.70645 15.7285 9.63574 15.5572 9.63574 15.3787C9.63574 15.2002 9.70645 15.029 9.8324 14.9025L12.7349 12L9.8324 9.10497C9.70645 8.97847 9.63574 8.80723 9.63574 8.62872C9.63574 8.45021 9.70645 8.27897 9.8324 8.15247C9.9589 8.02652 10.1301 7.95581 10.3087 7.95581C10.4872 7.95581 10.6584 8.02652 10.7849 8.15247L14.1599 11.5275C14.2858 11.654 14.3566 11.8252 14.3566 12.0037C14.3566 12.1822 14.2858 12.3535 14.1599 12.48L10.7849 15.855C10.6574 15.9825 10.4849 16.05 10.3124 16.05" fill="#C7AD88"/>
</svg>
