<svg xmlns="http://www.w3.org/2000/svg" viewBox="0 0 200 200">
  <!-- 배경 -->
  <defs>
    <linearGradient id="silverBgGradient" x1="0%" y1="0%" x2="100%" y2="100%">
      <stop offset="0%" stop-color="#1A1A1A" />
      <stop offset="100%" stop-color="#000000" />
    </linearGradient>
    <linearGradient id="silverGradient" x1="0%" y1="0%" x2="100%" y2="100%">
      <stop offset="0%" stop-color="#FFFFFF" />
      <stop offset="25%" stop-color="#F5F5F5" />
      <stop offset="50%" stop-color="#E0E0E0" />
      <stop offset="75%" stop-color="#BDBDBD" />
      <stop offset="100%" stop-color="#9E9E9E" />
    </linearGradient>
    <radialGradient id="silverGlow" cx="50%" cy="50%" r="50%" fx="50%" fy="50%">
      <stop offset="0%" stop-color="#FFFFFF" stop-opacity="0.8" />
      <stop offset="80%" stop-color="#E0E0E0" stop-opacity="0.1" />
      <stop offset="100%" stop-color="#E0E0E0" stop-opacity="0" />
    </radialGradient>
    <filter id="silverShadow" x="-50%" y="-50%" width="200%" height="200%">
      <feGaussianBlur in="SourceAlpha" stdDeviation="6" />
      <feOffset dx="0" dy="0" result="offsetblur" />
      <feFlood flood-color="#E0E0E0" />
      <feComposite in2="offsetblur" operator="in" />
      <feMerge>
        <feMergeNode />
        <feMergeNode in="SourceGraphic" />
      </feMerge>
    </filter>
  </defs>
  
  <!-- 기본 배경 -->
  <circle cx="100" cy="100" r="100" fill="url(#silverBgGradient)" />
  
  <!-- 반짝이는 효과 배경 -->
  <circle cx="100" cy="100" r="95" fill="none" stroke="url(#silverGradient)" stroke-width="8" stroke-dasharray="3,3" />
  <circle cx="100" cy="100" r="98" fill="none" stroke="#E0E0E0" stroke-width="1" opacity="0.5">
    <animate attributeName="r" values="98;96;98" dur="3s" repeatCount="indefinite" />
    <animate attributeName="opacity" values="0.5;0.8;0.5" dur="3s" repeatCount="indefinite" />
  </circle>
  
  <!-- 큰 별 모양 -->
  <g transform="translate(100,100) scale(1.2)">
    <path d="M0,-40 L8.6,-12.3 L37.8,-12.3 L14.6,4.7 L23.2,32.4 L0,15.3 L-23.2,32.4 L-14.6,4.7 L-37.8,-12.3 L-8.6,-12.3 Z" 
          fill="url(#silverGradient)"
          stroke="#9E9E9E"
          stroke-width="1"
          filter="url(#silverShadow)" />
  </g>
  
  <!-- 작은 별들 -->
  <g transform="translate(50,50) scale(0.4) rotate(15)">
    <path d="M0,-40 L8.6,-12.3 L37.8,-12.3 L14.6,4.7 L23.2,32.4 L0,15.3 L-23.2,32.4 L-14.6,4.7 L-37.8,-12.3 L-8.6,-12.3 Z" 
          fill="#E0E0E0"
          filter="url(#silverShadow)">
      <animate attributeName="opacity" values="1;0.5;1" dur="2s" repeatCount="indefinite" />
    </path>
  </g>
  
  <g transform="translate(150,50) scale(0.4) rotate(-15)">
    <path d="M0,-40 L8.6,-12.3 L37.8,-12.3 L14.6,4.7 L23.2,32.4 L0,15.3 L-23.2,32.4 L-14.6,4.7 L-37.8,-12.3 L-8.6,-12.3 Z" 
          fill="#E0E0E0"
          filter="url(#silverShadow)">
      <animate attributeName="opacity" values="0.5;1;0.5" dur="2s" repeatCount="indefinite" />
    </path>
  </g>
  
  <g transform="translate(50,150) scale(0.4) rotate(-15)">
    <path d="M0,-40 L8.6,-12.3 L37.8,-12.3 L14.6,4.7 L23.2,32.4 L0,15.3 L-23.2,32.4 L-14.6,4.7 L-37.8,-12.3 L-8.6,-12.3 Z" 
          fill="#E0E0E0"
          filter="url(#silverShadow)">
      <animate attributeName="opacity" values="0.7;0.3;0.7" dur="2.5s" repeatCount="indefinite" />
    </path>
  </g>
  
  <g transform="translate(150,150) scale(0.4) rotate(15)">
    <path d="M0,-40 L8.6,-12.3 L37.8,-12.3 L14.6,4.7 L23.2,32.4 L0,15.3 L-23.2,32.4 L-14.6,4.7 L-37.8,-12.3 L-8.6,-12.3 Z" 
          fill="#E0E0E0"
          filter="url(#silverShadow)">
      <animate attributeName="opacity" values="0.3;0.7;0.3" dur="2.5s" repeatCount="indefinite" />
    </path>
  </g>
  
  <!-- 빛나는 배경 효과 -->
  <circle cx="100" cy="100" r="75" fill="url(#silverGlow)" />
  
  <!-- 2등 텍스트 -->
  <g transform="translate(100,140) scale(1.2)">
    <text x="0" y="0" font-family="Arial" font-size="24" font-weight="bold" fill="url(#silverGradient)" text-anchor="middle" filter="url(#silverShadow)">TOP 2</text>
  </g>
  
  <!-- 반짝이는 효과 -->
  <g>
    <circle cx="70" cy="60" r="2" fill="#FFFFFF">
      <animate attributeName="opacity" values="0;1;0" dur="2s" repeatCount="indefinite" begin="0s" />
    </circle>
    <circle cx="120" cy="70" r="2" fill="#FFFFFF">
      <animate attributeName="opacity" values="0;1;0" dur="2s" repeatCount="indefinite" begin="0.3s" />
    </circle>
    <circle cx="65" cy="130" r="2" fill="#FFFFFF">
      <animate attributeName="opacity" values="0;1;0" dur="2s" repeatCount="indefinite" begin="0.6s" />
    </circle>
    <circle cx="140" cy="110" r="2" fill="#FFFFFF">
      <animate attributeName="opacity" values="0;1;0" dur="2s" repeatCount="indefinite" begin="0.9s" />
    </circle>
    <circle cx="90" cy="40" r="2" fill="#FFFFFF">
      <animate attributeName="opacity" values="0;1;0" dur="2s" repeatCount="indefinite" begin="1.2s" />
    </circle>
    <circle cx="115" cy="160" r="2" fill="#FFFFFF">
      <animate attributeName="opacity" values="0;1;0" dur="2s" repeatCount="indefinite" begin="1.5s" />
    </circle>
  </g>
</svg> 