<?xml version="1.0" encoding="utf-8"?><svg fill="#ac9735" viewBox="0 0 256 256" id="Flat" xmlns="http://www.w3.org/2000/svg"><g id="SVGRepo_bgCarrier" stroke-width="0"></g><g id="SVGRepo_tracerCarrier" stroke-linecap="round" stroke-linejoin="round"></g><g id="SVGRepo_iconCarrier"> <path d="M128,20A108,108,0,1,0,236,128,108.12186,108.12186,0,0,0,128,20Zm0,192a84,84,0,1,1,84-84A84.09562,84.09562,0,0,1,128,212ZM144,84v92a12,12,0,0,1-24,0V106.417l-5.3457,3.5625a12.00027,12.00027,0,1,1-13.3086-19.97265l24-15.99317A12.00071,12.00071,0,0,1,144,84Z"></path> </g></svg>