<svg width="20" height="20" viewBox="0 0 20 20" fill="none" xmlns="http://www.w3.org/2000/svg">
<path d="M18.2075 16.7925L14.3683 12.9533C15.2725 11.755 15.815 10.27 15.815 8.65665C15.815 4.70998 12.6033 1.49915 8.6575 1.49915C4.71083 1.49998 1.5 4.71081 1.5 8.65748C1.5 12.6033 4.71083 15.815 8.6575 15.815C10.27 15.815 11.7558 15.2725 12.9542 14.3683L16.7933 18.2075C16.9883 18.4025 17.2442 18.5 17.5 18.5C17.7558 18.5 18.0117 18.4025 18.2075 18.2066C18.5975 17.8166 18.5975 17.1833 18.2075 16.7925ZM3.5 8.65748C3.5 5.81331 5.81333 3.49998 8.6575 3.49998C11.5008 3.49998 13.8142 5.81331 13.8142 8.65665C13.8142 11.5 11.5008 13.8133 8.6575 13.8133C5.81333 13.8141 3.5 11.5008 3.5 8.65748V8.65748Z" fill="#C7AD88"/>
</svg>
