<svg width="17" height="16" viewBox="0 0 17 16" fill="none" xmlns="http://www.w3.org/2000/svg">
<path fill-rule="evenodd" clip-rule="evenodd" d="M3.67766 6.13602C3.34101 6.13602 3.01815 6.26975 2.7801 6.5078C2.54206 6.74584 2.40833 7.0687 2.40833 7.40535V12.73C2.40833 13.4314 2.97633 14 3.67766 14H4.96433V6.13602H3.67766ZM13.9837 4.66469H10.9557V1.82402C10.9558 1.56913 10.8718 1.32132 10.7167 1.11905C10.5616 0.916794 10.344 0.771398 10.0978 0.705438C9.85161 0.639478 9.59051 0.656644 9.35505 0.754271C9.1196 0.851898 8.92296 1.02452 8.79566 1.24535L5.97166 6.13602H5.96432V14H12.1203C12.6879 14 13.2391 13.8099 13.686 13.4599C14.1329 13.11 14.4496 12.6204 14.5857 12.0694L15.8323 7.02669C15.9017 6.74612 15.9064 6.45344 15.8459 6.17081C15.7854 5.88819 15.6614 5.62303 15.4833 5.39543C15.3051 5.16783 15.0775 4.98376 14.8177 4.85715C14.5579 4.73055 14.2727 4.66473 13.9837 4.66469Z" fill="#666666"/>
</svg>
