<svg width="52" height="36" viewBox="0 0 52 36" fill="none" xmlns="http://www.w3.org/2000/svg">
<rect width="52" height="36" rx="12" fill="white" fill-opacity="0.02"/>
<rect x="0.5" y="0.5" width="51" height="35" rx="11.5" stroke="white" stroke-opacity="0.02"/>
<path d="M31.8333 17.9792C31.8333 16.8265 31.5278 15.7744 30.9167 14.823C30.3056 13.8716 29.4861 13.1598 28.4583 12.6876C28.25 12.5904 28.0972 12.4411 28 12.2397C27.9028 12.0383 27.8889 11.8334 27.9583 11.6251C28.0417 11.4029 28.191 11.2431 28.4063 11.1459C28.6215 11.0487 28.8403 11.0487 29.0625 11.1459C30.4097 11.7431 31.4861 12.6563 32.2917 13.8855C33.0972 15.1147 33.5 16.4792 33.5 17.9792C33.5 19.4792 33.0972 20.8438 32.2917 22.073C31.4861 23.3022 30.4097 24.2154 29.0625 24.8126C28.8403 24.9098 28.6215 24.9098 28.4063 24.8126C28.191 24.7154 28.0417 24.5556 27.9583 24.3334C27.8889 24.1251 27.9028 23.9202 28 23.7188C28.0972 23.5174 28.25 23.3681 28.4583 23.2709C29.4861 22.7987 30.3056 22.0869 30.9167 21.1355C31.5278 20.1841 31.8333 19.132 31.8333 17.9792ZM21.8333 20.5001H19.3333C19.0972 20.5001 18.8993 20.4202 18.7396 20.2605C18.5799 20.1008 18.5 19.9029 18.5 19.6667V16.3334C18.5 16.0973 18.5799 15.8994 18.7396 15.7397C18.8993 15.5799 19.0972 15.5001 19.3333 15.5001H21.8333L24.5833 12.7501C24.8472 12.4862 25.1493 12.4272 25.4896 12.573C25.8299 12.7188 26 12.9792 26 13.3542V22.6459C26 23.0209 25.8299 23.2813 25.4896 23.4272C25.1493 23.573 24.8472 23.514 24.5833 23.2501L21.8333 20.5001ZM29.75 18.0001C29.75 18.5834 29.6181 19.1355 29.3542 19.6563C29.0903 20.1772 28.7431 20.6042 28.3125 20.9376C28.1736 21.0209 28.0313 21.0244 27.8854 20.948C27.7396 20.8716 27.6667 20.7501 27.6667 20.5834V15.3751C27.6667 15.2084 27.7396 15.0869 27.8854 15.0105C28.0313 14.9341 28.1736 14.9376 28.3125 15.0209C28.7431 15.3681 29.0903 15.8056 29.3542 16.3334C29.6181 16.8612 29.75 17.4167 29.75 18.0001Z" fill="#898D99"/>
</svg>
