<svg width="16" height="16" viewBox="0 0 16 16" fill="none" xmlns="http://www.w3.org/2000/svg">
<g clip-path="url(#clip0_14218_5615)">
<path fill-rule="evenodd" clip-rule="evenodd" d="M8.22326 3.63597L2.18192 9.67731L1.35792 12.7506L0.815923 14.7753C0.800869 14.8319 0.800944 14.8914 0.816141 14.9479C0.831338 15.0045 0.861124 15.056 0.902514 15.0974C0.943904 15.1388 0.995444 15.1686 1.05197 15.1838C1.1085 15.199 1.16803 15.199 1.22459 15.184L3.24792 14.6413L6.32192 13.8173H6.32259L12.3639 7.77597L8.22392 3.63597H8.22326ZM14.8619 4.33597L11.6646 1.13797C11.6027 1.07601 11.5293 1.02685 11.4484 0.993309C11.3675 0.959769 11.2808 0.942505 11.1933 0.942505C11.1057 0.942505 11.019 0.959769 10.9381 0.993309C10.8573 1.02685 10.7838 1.07601 10.7219 1.13797L9.07192 2.78731L13.2126 6.92797L14.8619 5.27797C14.9239 5.21611 14.973 5.14264 15.0066 5.06177C15.0401 4.98089 15.0574 4.89419 15.0574 4.80664C15.0574 4.71908 15.0401 4.63239 15.0066 4.55151C14.973 4.47063 14.9239 4.39716 14.8619 4.33531" fill="#666666"/>
</g>
<defs>
<clipPath id="clip0_14218_5615">
<rect width="16" height="16" fill="white"/>
</clipPath>
</defs>
</svg>
