<svg width="12" height="12" viewBox="0 0 12 12" fill="none" xmlns="http://www.w3.org/2000/svg">
<g clip-path="url(#clip0_20127_6452)">
<path fill-rule="evenodd" clip-rule="evenodd" d="M6.1675 2.72699L1.6365 7.25799L1.0185 9.56299L0.612003 11.0815C0.600713 11.1239 0.600769 11.1686 0.612167 11.211C0.623565 11.2534 0.645904 11.292 0.676946 11.3231C0.707989 11.3541 0.746644 11.3764 0.789039 11.3878C0.831434 11.3992 0.87608 11.3993 0.918503 11.388L2.436 10.981L4.7415 10.363H4.742L9.273 5.83199L6.168 2.72699H6.1675ZM11.1465 3.25199L8.7485 0.853495C8.70211 0.807022 8.64701 0.770153 8.58635 0.744997C8.52569 0.719842 8.46067 0.706894 8.395 0.706894C8.32934 0.706894 8.26431 0.719842 8.20366 0.744997C8.143 0.770153 8.0879 0.807022 8.0415 0.853495L6.804 2.09049L9.9095 5.19599L11.1465 3.95849C11.193 3.9121 11.2298 3.857 11.255 3.79634C11.2802 3.73568 11.2931 3.67066 11.2931 3.60499C11.2931 3.53933 11.2802 3.47431 11.255 3.41365C11.2298 3.35299 11.193 3.29789 11.1465 3.25149" fill="white"/>
</g>
<defs>
<clipPath id="clip0_20127_6452">
<rect width="12" height="12" fill="white"/>
</clipPath>
</defs>
</svg>
