<svg width="16" height="16" viewBox="0 0 16 16" fill="none" xmlns="http://www.w3.org/2000/svg">
<path d="M15.8809 9.27227C16.5827 4.91021 13.6195 0.804503 9.2625 0.10191C4.90548 -0.600683 0.804503 2.3659 0.102721 6.72796C-0.599062 11.09 2.3641 15.1957 6.72112 15.8983C11.0781 16.6009 15.1791 13.6343 15.8809 9.27227Z" fill="#EDA320"/>
<mask id="mask0_0_1" style="mask-type:luminance" maskUnits="userSpaceOnUse" x="1" y="1" width="14" height="14">
<path d="M14.3066 1.67682H1.6748V14.3232H14.3066V1.67682Z" fill="white"/>
</mask>
<g mask="url(#mask0_0_1)">
<path d="M7.18495 2.47999L7.34681 2.52226L7.48403 2.57158L7.61774 2.63851L7.74441 2.71601L7.84645 2.79351L7.9309 2.86044L7.99071 2.92737L8.05757 3.00487L8.15961 3.1493L8.25109 3.32895L8.33554 3.58259L8.37776 3.79395L8.39536 3.96304V4.14974L8.37073 4.37871L8.34609 4.48087L8.30387 4.56541L8.29683 4.60064L8.37424 4.61825L8.89852 4.72041L9.04278 4.76268H9.06741L9.10963 4.65348L9.21871 4.41746L9.32779 4.23781L9.42983 4.10042L9.52131 3.99122L9.6128 3.89611L9.7078 3.81861L9.82743 3.73406L9.96466 3.64952L10.1441 3.55441L10.3799 3.46986L10.5663 3.42759L10.7036 3.40998L10.8302 3.40293H10.9569L11.161 3.42054L11.3545 3.45577L11.5234 3.50509L11.6501 3.55441L11.8436 3.65656L11.9703 3.74111L12.0793 3.82565L12.213 3.95247L12.2905 4.03701L12.3749 4.14622L12.4594 4.27303L12.5368 4.41042L12.6036 4.55485L12.6634 4.7345L12.6705 4.812V4.91416L12.6458 5.01632L12.586 5.10791L12.5086 5.19245L12.4312 5.24177L12.3292 5.27699L12.2869 5.28404H12.2025L12.1005 5.25938L11.9914 5.1995L11.9245 5.13257L11.8577 5.01279L11.8154 4.91768L11.724 4.72393L11.6571 4.62178L11.5797 4.52667L11.5199 4.46678L11.4003 4.38224L11.2665 4.3153L11.1399 4.27303L11.0554 4.25542L10.971 4.24837H10.8619L10.6754 4.27303L10.5382 4.3153L10.4045 4.37519L10.2778 4.45973L10.1934 4.52667L10.1089 4.61121L10.0245 4.73803L9.95762 4.8578L9.89077 5.00927L9.87317 5.05154L9.9154 5.06916L9.99984 5.12904L10.2286 5.26643L10.415 5.39324L10.5523 5.4954L10.6297 5.55529L10.7388 5.6504L10.8408 5.74199L10.9076 5.80187L11.0941 5.98858L11.1539 6.05551L11.2314 6.14005L11.3264 6.25982L11.4284 6.39721L11.5375 6.55925L11.6466 6.73891L11.7732 6.97493L11.8577 7.15458L11.9492 7.38356L12.0336 7.63719L12.0934 7.86616L12.1427 8.09514L12.1919 8.42627L12.2166 8.71513V9.13785L12.1919 9.41614L12.1427 9.72966L12.0829 9.99386L11.9879 10.3003L11.9034 10.5293L11.8014 10.7583L11.7099 10.945L11.6078 11.1246L11.4812 11.3184L11.4143 11.41L11.263 11.6143L11.1539 11.7517L11.0343 11.8785L10.8302 12.0828L10.7352 12.1603L10.6332 12.2449L10.5241 12.3294L10.3552 12.4562L10.1687 12.576L10.0245 12.6605L9.79576 12.7803L9.60928 12.8648L9.41575 12.9423L9.12723 13.0339L8.85629 13.1009L8.55017 13.1502L8.19479 13.1925L8.06812 13.1995H7.79719L7.48403 13.1748L7.18847 13.1326L6.93513 13.0832L6.70642 13.0234L6.4003 12.9212L6.19622 12.8367L5.99214 12.7451L5.79862 12.6429L5.6051 12.5231L5.47843 12.4386L5.31657 12.3188L5.20749 12.2343L5.08786 12.1321L4.95063 12.0053L4.78878 11.8433L4.72896 11.7763L4.61988 11.6495L4.45099 11.4276L4.35951 11.2902L4.25043 11.1211L4.16598 10.9696L4.08154 10.8076L4.00413 10.6456L3.91968 10.4342L3.8282 10.1524L3.74375 9.8142L3.70153 9.58523L3.66634 9.31398L3.64875 9.0674L3.64171 8.83842V4.12156L3.6593 4.01235L3.70856 3.9102L3.80005 3.80804L3.88449 3.74111L3.96894 3.69884L4.04635 3.67418L4.10617 3.66713H4.32784L4.44747 3.68475L4.5671 3.72702L4.65859 3.79395L4.70081 3.83622L4.75007 3.89611L4.79933 3.99826L4.81693 4.06519L4.82396 4.22724V5.82301L4.81693 5.9146L4.86619 5.87937L4.90137 5.86176V5.84415L4.96823 5.78426L5.05971 5.69972L5.12656 5.63983L5.23564 5.54824L5.38694 5.42847L5.59102 5.29109L5.73528 5.1995L5.91473 5.09734L6.15048 4.97757L6.37919 4.88246L6.61494 4.79791L6.86828 4.73098L7.18143 4.66405L7.28347 4.62882L7.36792 4.56894L7.45237 4.43155L7.51922 4.26246L7.54385 4.16735V3.93133L7.50163 3.76929L7.44181 3.63191L7.3644 3.51213L7.27292 3.42054L7.13569 3.34305L6.99143 3.30077L6.88235 3.28316H6.80494L6.68531 3.30077L6.57623 3.32543H6.44956L6.34752 3.28316L6.23845 3.20566L6.17159 3.12816L6.12937 3.05066L6.11178 2.98373V2.81464L6.14696 2.72305L6.19622 2.64556L6.26308 2.57862L6.35456 2.51874L6.4566 2.47647L6.55864 2.45181L6.61846 2.44476H6.99847L7.17792 2.46942L7.18495 2.47999ZM7.62478 5.79835L7.4207 5.82301L7.12514 5.88994L6.86124 5.97448L6.65012 6.05903L6.43901 6.16823L6.27011 6.27039L6.09066 6.39016L5.93936 6.50993L5.84788 6.58743L5.63676 6.79879L5.55935 6.8939L5.46435 7.01368L5.35527 7.16515L5.28842 7.26731L5.21101 7.39412L5.14416 7.52094L5.05267 7.72526L4.96823 7.96128L4.90841 8.17264L4.84859 8.47911L4.82396 8.74331V9.14137L4.831 9.21887L4.86619 9.45489L4.91545 9.68386L4.9823 9.90579L5.06675 10.1277L5.14416 10.2898L5.2462 10.4765L5.34824 10.6385L5.43268 10.7583L5.4925 10.8358L5.59454 10.9556L5.67195 11.0471L5.76343 11.1387L5.83029 11.1986L5.92177 11.2832L6.0414 11.3783L6.17863 11.4804L6.28067 11.5474L6.41789 11.6319L6.62901 11.7411L6.85068 11.8327L7.07939 11.9102L7.29051 11.9595L7.58607 12.0088L7.83941 12.0335H8.00127L8.20535 12.0159L8.41647 11.9806L8.70499 11.9208L8.94074 11.8433L9.16241 11.7587L9.35594 11.6636L9.49316 11.5861L9.61983 11.5086L9.7465 11.4241L9.89077 11.3149L9.98577 11.2374L10.1124 11.1176L10.1723 11.0507L10.2919 10.9238L10.4115 10.7794L10.5312 10.6103L10.6402 10.4307L10.7176 10.2933L10.7845 10.1418L10.8689 9.91988L10.9358 9.69796L10.9956 9.44432L11.0378 9.15546L11.0554 8.96172V8.84194L11.0308 8.55309L10.9956 8.3065L10.9288 8.03525L10.8267 7.74639L10.7423 7.55265L10.6649 7.40822L10.5804 7.26379L10.4889 7.11936L10.3869 6.98197L10.32 6.89743L10.2426 6.80231L10.0808 6.64027L9.97873 6.54868L9.84502 6.43948L9.68317 6.31971L9.50372 6.2105L9.37001 6.13301L9.15889 6.03085L8.93018 5.93574L8.67684 5.85824L8.43054 5.80892L8.15961 5.77369H7.73737L7.63534 5.78074L7.62478 5.79835ZM8.18424 7.85207L8.3285 7.89434L8.46573 7.96128L8.55017 8.01059L8.65925 8.09514L8.7261 8.15502L8.81759 8.27479L8.88444 8.384L8.9513 8.54604L8.99352 8.71513L9.01111 8.84194V9.0216L8.97593 9.19069L8.92667 9.34216L8.81759 9.53591L8.7261 9.65568L8.6487 9.73318L8.52906 9.81773L8.39184 9.89523L8.24054 9.95511L8.07164 9.99034L7.98016 9.99738H7.86053L7.70923 9.97977L7.57552 9.94454L7.42422 9.87761L7.28699 9.80011L7.17792 9.70852L7.08643 9.60637L7.02661 9.52182L6.94921 9.39501L6.88939 9.23296L6.8542 9.08853L6.84717 9.02865V8.77501L6.8718 8.63058L6.92106 8.47911L6.98791 8.34172L7.06532 8.23957L7.1568 8.13741L7.21662 8.07752L7.35033 7.97537L7.49459 7.89787L7.62126 7.85559L7.78312 7.82037L7.84293 7.81332H7.98016L8.18424 7.84855V7.85207Z" fill="black"/>
</g>
</svg>
