<svg width="69" height="16" viewBox="0 0 69 16" fill="none" xmlns="http://www.w3.org/2000/svg">
<g clip-path="url(#clip0_1_2)">
<path d="M15.8807 9.27227C16.5825 4.91021 13.6193 0.8045 9.26229 0.101906C4.90527 -0.600687 0.804294 2.36589 0.102511 6.72795C-0.599272 11.09 2.36389 15.1957 6.72091 15.8983C11.0779 16.6009 15.1789 13.6343 15.8807 9.27227Z" fill="#EDA320"/>
<path d="M28.7752 15.1757L27.6281 11.9806H22.3221L21.175 15.1757H18.3601L23.7366 0.827829H26.2805L31.657 15.1757H28.7717H28.7752ZM24.9751 4.59005L23.3073 9.2118H26.6394L24.9716 4.59005H24.9751Z" fill="white"/>
<path d="M37.8849 15.1229H32.994V0.877146H37.8849C41.8293 0.877146 44.5527 3.94892 44.5527 7.96125V8.00352C44.5527 12.0123 41.8293 15.1264 37.8849 15.1264V15.1229ZM41.6639 8C41.6639 5.47776 40.1403 3.70586 37.8814 3.70586H35.7491V12.2941H37.8814C40.1403 12.2941 41.6639 10.5645 41.6639 8.03875V7.99648V8Z" fill="white"/>
<path d="M45.8827 15.1229V0.877146H55.3443V3.66711H48.6237V6.5557H54.5385V9.34566H48.6237V12.3364H55.4322V15.1264H45.8792L45.8827 15.1229Z" fill="white"/>
<path d="M69 13.1466L66.2766 9.08146V0.877146H69V13.1466Z" fill="#EDA320"/>
<path d="M68.9015 15.1229H65.5658L59.4927 6.06605V15.1229H56.7693V0.877146H59.3133L68.9015 15.1229Z" fill="white"/>
<mask id="mask0_1_2" style="mask-type:luminance" maskUnits="userSpaceOnUse" x="1" y="1" width="14" height="14">
<path d="M14.3067 1.67679H1.67486V14.3232H14.3067V1.67679Z" fill="white"/>
</mask>
<g mask="url(#mask0_1_2)">
<path d="M7.18501 2.47997L7.34686 2.52224L7.48409 2.57155L7.6178 2.63849L7.74447 2.71598L7.84651 2.79348L7.93095 2.86041L7.99077 2.92735L8.05762 3.00484L8.15966 3.14927L8.25115 3.32893L8.33559 3.58256L8.37782 3.79392L8.39541 3.96301V4.14971L8.37078 4.37869L8.34615 4.48085L8.30393 4.56539L8.29689 4.60062L8.3743 4.61823L8.89857 4.72039L9.04284 4.76266H9.06747L9.10969 4.65346L9.21877 4.41744L9.32784 4.23778L9.42988 4.1004L9.52137 3.99119L9.61285 3.89608L9.70785 3.81858L9.82749 3.73404L9.96471 3.64949L10.1442 3.55438L10.3799 3.46984L10.5664 3.42757L10.7036 3.40995L10.8303 3.40291H10.957L11.161 3.42052L11.3546 3.45575L11.5235 3.50506L11.6501 3.55438L11.8437 3.65654L11.9703 3.74108L12.0794 3.82563L12.2131 3.95244L12.2905 4.03699L12.375 4.14619L12.4594 4.27301L12.5368 4.41039L12.6037 4.55482L12.6635 4.73448L12.6705 4.81198V4.91414L12.6459 5.01629L12.5861 5.10788L12.5087 5.19243L12.4313 5.24174L12.3292 5.27697L12.287 5.28402H12.2025L12.1005 5.25936L11.9914 5.19947L11.9246 5.13254L11.8577 5.01277L11.8155 4.91766L11.724 4.72391L11.6572 4.62175L11.5798 4.52664L11.5199 4.46676L11.4003 4.38221L11.2666 4.31528L11.1399 4.27301L11.0555 4.25539L10.971 4.24835H10.862L10.6755 4.27301L10.5382 4.31528L10.4045 4.37517L10.2779 4.45971L10.1934 4.52664L10.109 4.61119L10.0245 4.738L9.95767 4.85777L9.89082 5.00925L9.87323 5.05152L9.91545 5.06913L9.9999 5.12902L10.2286 5.2664L10.4151 5.39322L10.5523 5.49538L10.6297 5.55526L10.7388 5.65037L10.8408 5.74196L10.9077 5.80185L11.0942 5.98855L11.154 6.05548L11.2314 6.14003L11.3264 6.2598L11.4285 6.39718L11.5375 6.55923L11.6466 6.73888L11.7733 6.9749L11.8577 7.15456L11.9492 7.38353L12.0337 7.63716L12.0935 7.86614L12.1427 8.09511L12.192 8.42624L12.2166 8.7151V9.13783L12.192 9.41612L12.1427 9.72964L12.0829 9.99384L11.9879 10.3003L11.9035 10.5293L11.8014 10.7583L11.7099 10.945L11.6079 11.1246L11.4812 11.3184L11.4144 11.41L11.2631 11.6143L11.154 11.7517L11.0344 11.8785L10.8303 12.0828L10.7353 12.1603L10.6332 12.2448L10.5242 12.3294L10.3553 12.4562L10.1688 12.576L10.0245 12.6605L9.79582 12.7803L9.60933 12.8648L9.41581 12.9423L9.12728 13.0339L8.85635 13.1008L8.55023 13.1502L8.19485 13.1924L8.06818 13.1995H7.79725L7.48409 13.1748L7.18853 13.1325L6.93519 13.0832L6.70648 13.0233L6.40036 12.9212L6.19628 12.8366L5.9922 12.745L5.79867 12.6429L5.60515 12.5231L5.47848 12.4386L5.31662 12.3188L5.20755 12.2343L5.08791 12.1321L4.95069 12.0053L4.78883 11.8432L4.72902 11.7763L4.61994 11.6495L4.45105 11.4276L4.35956 11.2902L4.25048 11.1211L4.16604 10.9696L4.08159 10.8076L4.00418 10.6455L3.91974 10.4342L3.82825 10.1524L3.7438 9.81418L3.70158 9.58521L3.66639 9.31396L3.6488 9.06737L3.64176 8.8384V4.12153L3.65936 4.01233L3.70862 3.91017L3.8001 3.80801L3.88455 3.74108L3.969 3.69881L4.0464 3.67415L4.10622 3.66711H4.32789L4.44753 3.68472L4.56716 3.72699L4.65864 3.79392L4.70087 3.8362L4.75013 3.89608L4.79939 3.99824L4.81698 4.06517L4.82402 4.22721V5.82299L4.81698 5.91458L4.86624 5.87935L4.90143 5.86174V5.84412L4.96828 5.78424L5.05977 5.69969L5.12662 5.63981L5.2357 5.54822L5.387 5.42845L5.59108 5.29106L5.73534 5.19947L5.91479 5.09731L6.15054 4.97754L6.37925 4.88243L6.61499 4.79789L6.86833 4.73096L7.18149 4.66403L7.28353 4.6288L7.36798 4.56891L7.45242 4.43153L7.51928 4.26244L7.54391 4.16733V3.93131L7.50168 3.76927L7.44187 3.63188L7.36446 3.51211L7.27297 3.42052L7.13575 3.34302L6.99148 3.30075L6.88241 3.28314H6.805L6.68536 3.30075L6.57629 3.32541H6.44962L6.34758 3.28314L6.2385 3.20564L6.17165 3.12814L6.12942 3.05064L6.11183 2.98371V2.81462L6.14702 2.72303L6.19628 2.64553L6.26313 2.5786L6.35461 2.51871L6.45666 2.47644L6.55869 2.45178L6.61851 2.44474H6.99852L7.17797 2.4694L7.18501 2.47997ZM7.62483 5.79833L7.42075 5.82299L7.12519 5.88992L6.8613 5.97446L6.65018 6.05901L6.43906 6.16821L6.27017 6.27037L6.09072 6.39014L5.93942 6.50991L5.84794 6.58741L5.63682 6.79877L5.55941 6.89388L5.46441 7.01365L5.35533 7.16513L5.28848 7.26728L5.21107 7.3941L5.14421 7.52092L5.05273 7.72523L4.96828 7.96125L4.90847 8.17261L4.84865 8.47908L4.82402 8.74329V9.14135L4.83106 9.21885L4.86624 9.45487L4.9155 9.68384L4.98236 9.90577L5.0668 10.1277L5.14421 10.2897L5.24625 10.4764L5.34829 10.6385L5.43274 10.7583L5.49255 10.8358L5.59459 10.9555L5.672 11.0471L5.76349 11.1387L5.83034 11.1986L5.92183 11.2831L6.04146 11.3782L6.17868 11.4804L6.28072 11.5473L6.41795 11.6319L6.62907 11.7411L6.85074 11.8327L7.07945 11.9102L7.29057 11.9595L7.58613 12.0088L7.83947 12.0335H8.00133L8.20541 12.0159L8.41652 11.9806L8.70505 11.9207L8.9408 11.8432L9.16247 11.7587L9.35599 11.6636L9.49322 11.5861L9.61989 11.5086L9.74656 11.424L9.89082 11.3148L9.98582 11.2373L10.1125 11.1176L10.1723 11.0506L10.2919 10.9238L10.4116 10.7794L10.5312 10.6103L10.6403 10.4306L10.7177 10.2933L10.7845 10.1418L10.869 9.91986L10.9358 9.69793L10.9957 9.4443L11.0379 9.15544L11.0555 8.96169V8.84192L11.0309 8.55306L10.9957 8.30647L10.9288 8.03523L10.8268 7.74637L10.7423 7.55262L10.6649 7.40819L10.5805 7.26376L10.489 7.11933L10.3869 6.98195L10.3201 6.8974L10.2427 6.80229L10.0808 6.64025L9.97879 6.54866L9.84508 6.43945L9.68322 6.31968L9.50377 6.21048L9.37007 6.13298L9.15895 6.03082L8.93024 5.93571L8.6769 5.85821L8.4306 5.8089L8.15966 5.77367H7.73743L7.63539 5.78071L7.62483 5.79833ZM8.18429 7.85205L8.32856 7.89432L8.46578 7.96125L8.55023 8.01057L8.65931 8.09511L8.72616 8.155L8.81764 8.27477L8.8845 8.38397L8.95135 8.54602L8.99357 8.7151L9.01117 8.84192V9.02158L8.97598 9.19067L8.92672 9.34214L8.81764 9.53589L8.72616 9.65566L8.64875 9.73316L8.52912 9.8177L8.39189 9.8952L8.24059 9.95509L8.0717 9.99031L7.98021 9.99736H7.86058L7.70928 9.97975L7.57557 9.94452L7.42427 9.87759L7.28705 9.80009L7.17797 9.7085L7.08649 9.60634L7.02667 9.5218L6.94926 9.39498L6.88944 9.23294L6.85426 9.08851L6.84722 9.02862V8.77499L6.87185 8.63056L6.92111 8.47908L6.98797 8.3417L7.06537 8.23954L7.15686 8.13738L7.21668 8.0775L7.35038 7.97534L7.49465 7.89784L7.62132 7.85557L7.78317 7.82034L7.84299 7.8133H7.98021L8.18429 7.84853V7.85205Z" fill="black"/>
</g>
</g>
<defs>
<clipPath id="clip0_1_2">
<rect width="69" height="16" fill="white"/>
</clipPath>
</defs>
</svg>
