<svg width="60" height="60" viewBox="0 0 60 60" fill="none" xmlns="http://www.w3.org/2000/svg">
<rect width="60" height="60" rx="30" fill="#1461A3"/>
<path d="M24.7353 10C28.2531 10.0001 31.1151 12.862 31.1152 16.3799C31.1152 17.3076 30.992 18.1514 30.7529 18.9082C31.4768 19.0004 32.1846 19.1419 32.8749 19.3291C33.6923 16.185 36.5554 13.8567 39.9521 13.8564C42.8592 13.8564 45.4902 15.5771 46.6542 18.2412H46.6552C47.095 19.2476 46.6361 20.4194 45.6298 20.8594C44.6235 21.2992 43.4517 20.8393 43.0117 19.834C42.4796 18.6181 41.2784 17.832 39.9521 17.832C38.2025 17.8323 36.7643 19.1873 36.6288 20.9033C41.2685 23.6117 44.3925 28.6436 44.3925 34.3926C44.3924 42.9987 37.0464 50 28.7851 50C20.5238 50 13.742 43.5478 13.2119 35.418C13.1898 35.2999 13.1777 35.1785 13.1777 35.0547V17.0088C13.1778 15.9112 14.0683 15.0205 15.166 15.0205C16.2635 15.0206 17.1531 15.9103 17.1533 17.0078V23.9961C19.003 21.9283 21.3942 20.3548 24.1025 19.501C24.1417 19.4885 24.1814 19.4754 24.2216 19.4648C24.6403 19.3362 25.0679 19.2259 25.5009 19.1328C26.6897 18.6785 27.1386 17.8675 27.1386 16.3799C27.1386 15.0546 26.0605 13.9767 24.7353 13.9766C23.6376 13.9766 22.7471 13.0859 22.747 11.9883C22.747 10.8905 23.6376 10 24.7353 10ZM28.7851 22.7598C28.0101 22.7598 27.2532 22.8364 26.5204 22.9814C26.1248 23.112 25.7023 23.2212 25.2568 23.3076C20.5633 24.8059 17.1533 29.2073 17.1533 34.3916C17.1533 40.8051 22.3716 46.0234 28.7851 46.0234C35.1986 46.0234 40.4159 40.8051 40.416 34.3916C40.416 27.978 35.1986 22.7598 28.7851 22.7598ZM28.788 30.3389C31.0246 30.3391 32.8378 32.152 32.8378 34.3887C32.8378 36.6253 31.0246 38.4383 28.788 38.4385C26.5513 38.4385 24.7373 36.6254 24.7372 34.3887C24.7372 32.1519 26.5513 30.3389 28.788 30.3389Z" fill="white"/>
</svg>
