<svg width="25" height="25" viewBox="0 0 25 25" fill="none" xmlns="http://www.w3.org/2000/svg">
<path d="M24.8391 14.4344C25.9367 7.64466 21.3021 1.25393 14.4875 0.160307C7.67278 -0.933312 1.25859 3.68431 0.160958 10.4741C-0.936676 17.2638 3.6979 23.6545 10.5126 24.7481C17.3272 25.8418 23.7414 21.2241 24.8391 14.4344Z" fill="#EDA320"/>
<mask id="mask0_6_601" style="mask-type:luminance" maskUnits="userSpaceOnUse" x="2" y="2" width="21" height="21">
<path d="M22.3772 2.61172H2.62021V22.2965H22.3772V2.61172Z" fill="white"/>
</mask>
<g mask="url(#mask0_6_601)">
<path d="M11.2384 3.8619L11.4916 3.9277L11.7062 4.00446L11.9153 4.10864L12.1135 4.22927L12.2731 4.3499L12.4051 4.45408L12.4987 4.55827L12.6033 4.6789L12.7629 4.90371L12.9059 5.18335L13.038 5.57814L13.1041 5.90714L13.1316 6.17033V6.46094L13.0931 6.81735L13.0545 6.97636L12.9885 7.10796L12.9775 7.16279L13.0986 7.19021L13.9186 7.34922L14.1442 7.41502H14.1827L14.2488 7.24504L14.4194 6.87766L14.59 6.59802L14.7496 6.38418L14.8927 6.2142L15.0357 6.06615L15.1843 5.94552L15.3714 5.81392L15.5861 5.68232L15.8667 5.53428L16.2355 5.40268L16.5271 5.33688L16.7418 5.30947L16.9399 5.2985H17.138L17.4572 5.32592L17.7599 5.38075L18.0241 5.45751L18.2222 5.53428L18.5249 5.69329L18.723 5.82489L18.8936 5.95648L19.1027 6.15388L19.2238 6.28548L19.3559 6.45546L19.4879 6.65285L19.609 6.8667L19.7136 7.09151L19.8071 7.37115L19.8181 7.49178V7.6508L19.7796 7.80981L19.6861 7.95237L19.565 8.08397L19.4439 8.16074L19.2843 8.21557L19.2183 8.22653H19.0862L18.9266 8.18815L18.756 8.09494L18.6514 7.99076L18.5469 7.80433L18.4808 7.65628L18.3377 7.3547L18.2332 7.19569L18.1121 7.04764L18.0186 6.95443L17.8314 6.82283L17.6223 6.71865L17.4242 6.65285L17.2921 6.62544L17.16 6.61447H16.9894L16.6978 6.65285L16.4831 6.71865L16.274 6.81187L16.0759 6.94346L15.9438 7.04764L15.8117 7.17924L15.6796 7.37664L15.5751 7.56307L15.4705 7.79884L15.443 7.86464L15.509 7.89206L15.6411 7.98527L15.9988 8.19912L16.2905 8.39651L16.5051 8.55553L16.6262 8.64874L16.7968 8.79679L16.9564 8.93935L17.061 9.03257L17.3526 9.32318L17.4462 9.42736L17.5673 9.55895L17.7159 9.74538L17.8755 9.95923L18.0461 10.2115L18.2167 10.4911L18.4148 10.8585L18.5469 11.1381L18.69 11.4945L18.822 11.8893L18.9156 12.2457L18.9926 12.6021L19.0697 13.1176L19.1082 13.5672V14.2252L19.0697 14.6583L18.9926 15.1463L18.8991 15.5576L18.7505 16.0346L18.6184 16.391L18.4588 16.7474L18.3157 17.0381L18.1561 17.3177L17.958 17.6193L17.8535 17.7618L17.6168 18.0799L17.4462 18.2937L17.2591 18.4911L16.9399 18.8091L16.7913 18.9298L16.6317 19.0614L16.4611 19.193L16.1969 19.3904L15.9053 19.5768L15.6796 19.7084L15.3219 19.8948L15.0302 20.0264L14.7276 20.147L14.2763 20.2896L13.8525 20.3938L13.3737 20.4705L12.8179 20.5363L12.6198 20.5473H12.196L11.7062 20.5089L11.2439 20.4431L10.8477 20.3664L10.49 20.2731L10.0112 20.1141L9.692 19.9825L9.3728 19.84L9.07012 19.681L8.76743 19.4945L8.56931 19.3629L8.31616 19.1765L8.14556 19.0449L7.95844 18.8859L7.74381 18.6885L7.49066 18.4363L7.3971 18.3321L7.2265 18.1347L6.96234 17.7893L6.81925 17.5754L6.64865 17.3122L6.51657 17.0764L6.38449 16.8242L6.26341 16.572L6.13133 16.243L5.98825 15.8043L5.85617 15.2779L5.79013 14.9215L5.73509 14.4993L5.70758 14.1155L5.69657 13.7591V6.41707L5.72409 6.24709L5.80113 6.08808L5.94422 5.92907L6.0763 5.82489L6.20838 5.75909L6.32945 5.72071L6.42301 5.70974H6.76972L6.95684 5.73716L7.14395 5.80295L7.28704 5.90714L7.35308 5.97293L7.43012 6.06615L7.50717 6.22516L7.53469 6.32934L7.54569 6.58157V9.06546L7.53469 9.20803L7.61173 9.1532L7.66677 9.12578V9.09836L7.77133 9.00515L7.91442 8.87355L8.01898 8.78034L8.18958 8.63777L8.42623 8.45134L8.74542 8.2375L8.97106 8.09494L9.25173 7.93592L9.62045 7.74949L9.97817 7.60145L10.3469 7.46985L10.7431 7.36567L11.2329 7.26149L11.3925 7.20666L11.5246 7.11344L11.6567 6.8996L11.7613 6.6364L11.7998 6.48836V6.12098L11.7337 5.86875L11.6402 5.65491L11.5191 5.46848L11.376 5.32592L11.1614 5.20528L10.9358 5.13949L10.7651 5.11207H10.6441L10.457 5.13949L10.2864 5.17787H10.0882L9.92864 5.11207L9.75804 4.99144L9.65347 4.87081L9.58743 4.75018L9.55992 4.646V4.3828L9.61495 4.24024L9.692 4.11961L9.79656 4.01543L9.93965 3.92221L10.0992 3.85641L10.2588 3.81803L10.3524 3.80707H10.9468L11.2274 3.84545L11.2384 3.8619ZM11.9264 9.02708L11.6072 9.06546L11.1449 9.16965L10.7321 9.30124L10.4019 9.43284L10.0717 9.60282L9.80757 9.76183L9.5269 9.94826L9.29025 10.1347L9.14717 10.2553L8.81696 10.5843L8.69589 10.7324L8.5473 10.9188L8.3767 11.1546L8.27213 11.3136L8.15106 11.511L8.0465 11.7084L7.90341 12.0264L7.77133 12.3938L7.67777 12.7228L7.58422 13.1998L7.54569 13.611V14.2307L7.5567 14.3513L7.61173 14.7187L7.68878 15.0751L7.79334 15.4205L7.92542 15.7659L8.0465 16.0182L8.20609 16.3088L8.36569 16.561L8.49777 16.7474L8.59133 16.8681L8.75092 17.0545L8.872 17.1971L9.01508 17.3396L9.11965 17.4328L9.26274 17.5644L9.44985 17.7125L9.66448 17.8715L9.82408 17.9757L10.0387 18.1073L10.3689 18.2773L10.7156 18.4198L11.0733 18.5405L11.4035 18.6172L11.8658 18.694L12.2621 18.7324H12.5152L12.8344 18.705L13.1646 18.6501L13.6159 18.5569L13.9846 18.4363L14.3313 18.3047L14.634 18.1566L14.8486 18.036L15.0467 17.9154L15.2449 17.7838L15.4705 17.6138L15.6191 17.4932L15.8172 17.3067L15.9108 17.2026L16.0979 17.0052L16.285 16.7803L16.4721 16.5171L16.6427 16.2375L16.7638 16.0237L16.8684 15.7879L17.0004 15.4424L17.105 15.097L17.1986 14.7022L17.2646 14.2526L17.2921 13.951V13.7646L17.2536 13.315L17.1986 12.9311L17.094 12.5089L16.9344 12.0593L16.8023 11.7577L16.6812 11.5329L16.5492 11.3081L16.4061 11.0833L16.2465 10.8694L16.1419 10.7378L16.0208 10.5898L15.7677 10.3376L15.6081 10.195L15.399 10.025L15.1458 9.8386L14.8651 9.66862L14.656 9.54799L14.3258 9.38897L13.9681 9.24093L13.5719 9.1203L13.1866 9.04353L12.7629 8.9887H12.1025L11.9429 8.99967L11.9264 9.02708ZM12.8014 12.2238L13.027 12.2896L13.2417 12.3938L13.3737 12.4705L13.5443 12.6021L13.6489 12.6954L13.792 12.8818L13.8965 13.0518L14.0011 13.304L14.0672 13.5672L14.0947 13.7646V14.0442L14.0396 14.3074L13.9626 14.5432L13.792 14.8448L13.6489 15.0312L13.5278 15.1518L13.3407 15.2834L13.1261 15.4041L12.8894 15.4973L12.6253 15.5521L12.4822 15.5631H12.2951L12.0584 15.5357L11.8493 15.4808L11.6127 15.3766L11.398 15.256L11.2274 15.1134L11.0843 14.9544L10.9908 14.8228L10.8697 14.6254L10.7762 14.3732L10.7211 14.1484L10.7101 14.0552V13.6604L10.7486 13.4356L10.8257 13.1998L10.9302 12.986L11.0513 12.8269L11.1944 12.6679L11.288 12.5747L11.4971 12.4157L11.7227 12.2951L11.9208 12.2293L12.174 12.1744L12.2676 12.1635H12.4822L12.8014 12.2183V12.2238Z" fill="black"/>
</g>
</svg>
