<svg width="96" height="32" viewBox="0 0 96 32" fill="none" xmlns="http://www.w3.org/2000/svg">
<g clip-path="url(#clip0_2_371)">
<path d="M68.4188 24.6754V-0.00708008H73.3791V24.6754H68.4188Z" fill="#F6A500"/>
<path d="M10.6311 32.0071H0.00189209V7.32458H10.206C15.1663 7.32458 18.0503 10.0261 18.0503 14.2592C18.0503 16.9962 16.1938 18.7689 14.9112 19.3574C16.4418 20.0523 18.4046 21.6122 18.4046 24.9022C18.4046 29.5112 15.1592 32.0071 10.6311 32.0071ZM9.80913 11.6215H4.95512V17.3082H9.80913C11.9137 17.3082 13.09 16.1666 13.09 14.4648C13.09 12.7702 11.9137 11.6215 9.80913 11.6215ZM10.128 21.6406H4.95512V27.7101H10.128C12.3743 27.7101 13.4443 26.3275 13.4443 24.6612C13.4443 22.9949 12.3743 21.6477 10.128 21.6477V21.6406Z" fill="white"/>
<path d="M33.5336 21.8816V32.0071H28.6087V21.8816L20.9769 7.32458H26.3624L31.103 17.2727L35.7799 7.32458H41.1654L33.5336 21.8816Z" fill="white"/>
<path d="M55.2243 32.0071H44.5951V7.32458H54.7992C59.7595 7.32458 62.6435 10.0261 62.6435 14.2592C62.6435 16.9962 60.787 18.7689 59.5044 19.3574C61.035 20.0523 62.9978 21.6122 62.9978 24.9022C62.9978 29.5112 59.7524 32.0071 55.2243 32.0071ZM54.4023 11.6215H49.5483V17.3082H54.4023C56.5069 17.3082 57.6832 16.1666 57.6832 14.4648C57.6832 12.7702 56.5069 11.6215 54.4023 11.6215ZM54.7212 21.6406H49.5483V27.7101H54.7212C56.9675 27.7101 58.0375 26.3275 58.0375 24.6612C58.0375 22.9949 56.9675 21.6477 54.7212 21.6477V21.6406Z" fill="white"/>
<path d="M89.3583 11.6215V32.0071H84.4051V11.6215H77.7654V7.32458H95.9981V11.6215H89.3583Z" fill="white"/>
</g>
<defs>
<clipPath id="clip0_2_371">
<rect width="96" height="32" fill="white"/>
</clipPath>
</defs>
</svg>
