<svg width="60" height="60" viewBox="0 0 60 60" fill="none" xmlns="http://www.w3.org/2000/svg">
<rect width="60" height="60" rx="10" fill="#2D281E"/>
<path d="M30 16C37.732 16 44 22.268 44 30C44 37.732 37.732 44 30 44C22.268 44 16 37.732 16 30C16 22.268 22.268 16 30 16ZM25.2002 24C24.3204 24 23.567 24.2936 22.9404 24.8809C22.3138 25.4684 22 26.175 22 27V33C22 33.825 22.3138 34.5316 22.9404 35.1191C23.567 35.7064 24.3204 36 25.2002 36H34.7998C35.6796 36 36.433 35.7064 37.0596 35.1191C37.6862 34.5316 38 33.825 38 33V27C38 26.175 37.6862 25.4684 37.0596 24.8809C36.433 24.2936 35.6796 24 34.7998 24H25.2002ZM34.7998 28.5C35.0664 28.5 35.3134 28.559 35.54 28.6777C35.7667 28.7965 35.953 28.9502 36.0996 29.1377L33.3203 31.3125C33.2138 31.3874 33.1003 31.4379 32.9805 31.4629C32.8605 31.4879 32.7401 31.4879 32.6201 31.4629L23.7197 29.4375C23.8397 29.15 24.03 28.9217 24.29 28.7529C24.55 28.5842 24.8536 28.5 25.2002 28.5H34.7998ZM34.7998 25.5C35.2397 25.5 35.6164 25.6468 35.9297 25.9404C36.243 26.2342 36.4004 26.5875 36.4004 27V27.3936C36.1604 27.2561 35.9063 27.1562 35.6396 27.0938C35.3731 27.0313 35.093 27 34.7998 27H25.2002C24.907 27 24.6269 27.0313 24.3604 27.0938C24.0937 27.1562 23.8396 27.2561 23.5996 27.3936V27C23.5996 26.5875 23.757 26.2342 24.0703 25.9404C24.3836 25.6468 24.7603 25.5 25.2002 25.5H34.7998Z" fill="#EDA320"/>
</svg>
