<svg width="60" height="60" viewBox="0 0 60 60" fill="none" xmlns="http://www.w3.org/2000/svg">
<rect width="60" height="60" rx="10" fill="#2D281E"/>
<path d="M30 16C37.732 16 44 22.268 44 30C44 37.732 37.732 44 30 44C22.268 44 16 37.732 16 30C16 22.268 22.268 16 30 16ZM37.6973 32.9219C36.0821 34.3146 33.2956 35.1982 29.999 35.1982C26.7022 35.1982 23.9158 34.3147 22.2998 32.9219C22.1088 33.2649 21.9991 33.6247 21.999 33.998C21.999 36.2076 25.5814 37.998 29.999 37.998C34.4164 37.9979 37.999 36.2076 37.999 33.998C37.9989 33.6247 37.8883 33.2649 37.6973 32.9219ZM37.6973 28.9219C36.0821 30.3146 33.2956 31.1982 29.999 31.1982C26.7022 31.1982 23.9158 30.3147 22.2998 28.9219C22.1088 29.2649 21.9991 29.6247 21.999 29.998C21.999 32.2076 25.5814 33.998 29.999 33.998C34.4164 33.9979 37.999 32.2076 37.999 29.998C37.9989 29.6247 37.8883 29.2649 37.6973 28.9219ZM29.999 22C25.5814 22 21.998 23.7912 21.998 26C21.9983 28.2095 25.5816 30 29.999 30C34.4162 29.9999 37.9988 28.2094 37.999 26C37.999 23.7913 34.4164 22.0001 29.999 22Z" fill="#EDA320"/>
</svg>
