<svg width="116" height="80" viewBox="0 0 116 80" fill="none" xmlns="http://www.w3.org/2000/svg">
  <g clip-path="url(#clip0_3070_2526)">
    <path
      d="M37.5984 36.6448C36.1723 36.6448 34.9945 37.1035 34.0967 38.0093C33.2 38.914 32.7458 40.0678 32.7458 41.4381C32.7458 42.8085 33.2095 43.8811 34.1225 44.8252C35.0368 45.7704 36.1888 46.2488 37.5478 46.2488C38.5527 46.2488 39.454 45.9778 40.2247 45.4438C40.9954 44.9098 41.6002 44.1267 42.0215 43.1178L42.0544 43.0378H40.6036L40.5871 43.0714C40.2871 43.6946 39.8623 44.1811 39.3258 44.5206C38.788 44.8588 38.1785 45.0302 37.5125 45.0302C36.5806 45.0302 35.784 44.7337 35.1474 44.1499C34.5238 43.5788 34.1626 42.8108 34.0755 41.8656H42.3145V41.7242C42.3145 40.2207 41.8685 38.9858 40.9896 38.0534C40.1094 37.1197 38.968 36.6459 37.5972 36.6459L37.5984 36.6448ZM35.2239 38.6534C35.8216 38.1194 36.5641 37.8483 37.4278 37.8483C39.2799 37.8483 40.4448 38.8341 40.8907 40.7778H34.1143C34.2661 39.8894 34.6391 39.1747 35.2239 38.6534Z"
      fill="rgba(255,255,255,0.5)" />
    <path
      d="M52.1326 44.0178L48.3485 33.984H47.033L51.6184 45.9616L51.6325 45.9986H52.6492L57.2499 33.984H55.9332L52.1326 44.0178Z"
      fill="rgba(255,255,255,0.5)" />
    <path
      d="M25.6071 38.2225C24.7905 37.2089 23.6679 36.6957 22.2665 36.6957C20.8651 36.6957 19.7073 37.1602 18.7989 38.0765C17.8905 38.9928 17.4304 40.1407 17.4304 41.4891C17.4304 42.8374 17.8823 43.9344 18.773 44.8507C19.6637 45.7681 20.8051 46.2326 22.1641 46.2326C22.8948 46.2326 23.5844 46.082 24.2127 45.7832C24.7834 45.5133 25.2517 45.1472 25.6071 44.6943V45.9975H26.8637V36.8961H25.6071V38.2225V38.2225ZM24.5787 38.9279C25.2611 39.6218 25.6071 40.45 25.6071 41.3895C25.6071 42.4181 25.2576 43.2938 24.5692 43.9935C23.8809 44.692 23.0831 45.0464 22.1983 45.0464C21.3134 45.0464 20.465 44.7082 19.7837 44.0421C19.1013 43.3761 18.7553 42.5339 18.7553 41.5401C18.7553 40.4894 19.1013 39.6079 19.7837 38.9198C20.4662 38.2317 21.2899 37.8831 22.2324 37.8831C23.1066 37.8831 23.8962 38.2352 24.5787 38.9279V38.9279Z"
      fill="rgba(255,255,255,0.5)" />
    <path
      d="M30.6878 33.984H29.397V36.8961H27.6638V38.1669H29.397V45.9986H30.6878V38.1669H32.4222V36.8961H30.6878V33.984Z"
      fill="rgba(255,255,255,0.5)" />
    <path
      d="M8.91379 41.3466H15.0007C14.7265 42.4227 14.1582 43.3054 13.3133 43.9715C12.4497 44.6514 11.4648 44.9966 10.3834 44.9966C9.01263 44.9966 7.83714 44.5124 6.88993 43.5579C5.94271 42.6034 5.46146 41.3837 5.46146 39.9334C5.46146 38.6047 5.93683 37.4394 6.87345 36.4675C7.8089 35.4968 8.98439 35.0045 10.367 35.0045C11.9049 35.0045 13.2392 35.7007 14.3323 37.0745L14.35 37.0965H15.9385L15.8914 37.0108C15.3219 35.9694 14.5606 35.1563 13.6263 34.5956C12.6921 34.035 11.6189 33.75 10.434 33.75C8.66904 33.75 7.17468 34.335 5.98978 35.4899C4.72722 36.712 4.08594 38.2005 4.08594 39.916C4.08594 41.6316 4.68604 43.2116 5.87094 44.4163C7.05584 45.6222 8.53961 46.2326 10.2822 46.2326C12.0249 46.2326 13.4369 45.6673 14.6147 44.5518C15.7937 43.4363 16.4433 41.9849 16.5456 40.238L16.5492 40.1767H8.91379V41.3466V41.3466Z"
      fill="rgba(255,255,255,0.5)" />
    <path
      d="M100.308 36.6448C98.8815 36.6448 97.7037 37.1035 96.8059 38.0093C95.9093 38.914 95.4551 40.0678 95.4551 41.4381C95.4551 42.8085 95.9187 43.8811 96.8306 44.8252C97.7449 45.7704 98.8968 46.2488 100.256 46.2488C101.261 46.2488 102.162 45.9778 102.933 45.4438C103.703 44.9098 104.308 44.1267 104.73 43.1178L104.762 43.0378H103.312L103.295 43.0714C102.995 43.6946 102.57 44.1811 102.034 44.5206C101.496 44.8588 100.887 45.0302 100.221 45.0302C99.2886 45.0302 98.492 44.7337 97.8555 44.1499C97.2318 43.5788 96.8706 42.8108 96.7835 41.8656H105.023V41.7242C105.023 40.2207 104.577 38.9858 103.698 38.0534C102.817 37.1197 101.676 36.6459 100.305 36.6459L100.308 36.6448ZM96.8235 40.7778C96.9753 39.8894 97.3483 39.1747 97.9331 38.6534C98.5309 38.1194 99.2733 37.8483 100.137 37.8483C101.989 37.8483 103.154 38.8341 103.6 40.7778H96.8235V40.7778Z"
      fill="rgba(255,255,255,0.5)" />
    <path
      d="M92.904 37.8171V36.8961H91.6814V45.9986H92.9887V40.5184C92.9887 39.7434 93.1358 39.1608 93.4264 38.7878C93.7147 38.4183 94.2418 38.197 94.9914 38.1321L95.0455 38.1275V36.7606H94.9855C94.1524 36.7722 93.4523 37.1267 92.9028 37.8159L92.904 37.8171Z"
      fill="rgba(255,255,255,0.5)" />
    <path
      d="M109.886 40.9678C109.757 40.9099 109.48 40.8195 109.036 40.6886C108.607 40.5624 108.283 40.4326 108.072 40.3017C107.634 40.0423 107.421 39.6762 107.421 39.1804C107.421 38.8295 107.544 38.5283 107.786 38.2839C108.029 38.0394 108.338 37.9167 108.705 37.9167C109.108 37.9167 109.431 38.0267 109.668 38.2445C109.904 38.4611 110.035 38.7831 110.057 39.2013L110.06 39.2557H111.435L111.433 39.1955C111.399 38.4032 111.144 37.7765 110.675 37.3317C110.207 36.888 109.567 36.6633 108.773 36.6633C108.023 36.6633 107.378 36.917 106.853 37.4162C106.329 37.9167 106.062 38.5329 106.062 39.2488C106.062 40.0098 106.263 40.5705 106.659 40.9157C107.049 41.2539 107.684 41.5783 108.548 41.8806C109.127 42.088 109.548 42.3208 109.801 42.5698C110.054 42.8189 110.175 43.1606 110.175 43.5996C110.175 44.0155 110.027 44.3618 109.735 44.6283C109.442 44.8959 109.073 45.0314 108.636 45.0314C108.2 45.0314 107.789 44.8553 107.474 44.5066C107.156 44.1568 106.996 43.6993 106.996 43.1479V43.0564H105.67V43.1154C105.694 44.0746 105.977 44.8414 106.512 45.3963C107.049 45.9523 107.757 46.2338 108.621 46.2338C109.484 46.2338 110.186 45.972 110.743 45.4565C111.302 44.9399 111.586 44.2808 111.586 43.4977C111.586 42.2953 111.013 41.4439 109.886 40.9678V40.9678Z"
      fill="rgba(255,255,255,0.5)" />
    <path
      d="M79.6619 33.984H78.3711V36.8961H76.6367V38.1669H78.3711V45.9986H79.6619V38.1669H81.3951V36.8961H79.6619V33.984Z"
      fill="rgba(255,255,255,0.5)" />
    <path
      d="M88.6728 41.5169C88.6728 41.8899 88.6657 42.1783 88.6563 42.3741C88.6457 42.593 88.6116 42.8467 88.5551 43.127C88.4998 43.4027 88.4115 43.6414 88.2903 43.8371C87.8162 44.6283 87.0443 45.0302 85.9947 45.0302C85.0451 45.0302 84.3779 44.765 84.012 44.2437C83.6413 43.7155 83.4531 42.8676 83.4531 41.7242V36.8961H82.1799V41.6397C82.1799 43.207 82.4647 44.3758 83.0248 45.1136C83.5896 45.8562 84.5768 46.2326 85.9617 46.2326C87.0831 46.2326 87.995 45.8596 88.6739 45.1241V45.9975H89.9647V36.8961H88.6739V41.5169H88.6728Z"
      fill="rgba(255,255,255,0.5)" />
    <path
      d="M75.2328 38.1611C74.6009 37.1996 73.5666 36.7119 72.157 36.7119C71.0003 36.7119 70.0543 37.0861 69.3436 37.8251V36.8961H68.0869V45.9986H69.3436V41.4427C69.3448 41.064 69.3507 40.7767 69.3601 40.589C69.3707 40.3805 69.4048 40.1326 69.4613 39.8523C69.5166 39.5754 69.606 39.331 69.726 39.1248C70.1884 38.3337 70.9603 37.9329 72.0205 37.9329C72.9159 37.9329 73.5702 38.1703 73.9644 38.6395C74.3621 39.1121 74.5633 39.8731 74.5633 40.9041V45.9986H75.8364V41.2389C75.8364 40.4917 75.7964 39.8801 75.7164 39.4214C75.6364 38.958 75.4728 38.5341 75.2316 38.1611H75.2328Z"
      fill="rgba(255,255,255,0.5)" />
    <path
      d="M62.1448 36.6448C60.7187 36.6448 59.5408 37.1035 58.643 38.0093C57.7464 38.914 57.2922 40.0678 57.2922 41.4381C57.2922 42.8085 57.7558 43.8811 58.6689 44.8252C59.5832 45.7704 60.7352 46.2488 62.0942 46.2488C63.0991 46.2488 64.0004 45.9778 64.7711 45.4438C65.5418 44.9098 66.1466 44.1267 66.5679 43.1178L66.6008 43.0378H65.15L65.1335 43.0714C64.8335 43.6946 64.4087 44.1811 63.871 44.5206C63.3332 44.8588 62.7237 45.0302 62.0577 45.0302C61.1258 45.0302 60.3292 44.7337 59.6926 44.1499C59.069 43.5788 58.7078 42.8108 58.6207 41.8656H66.8597V41.7242C66.8597 40.2207 66.4137 38.9858 65.5348 38.0534C64.6546 37.1197 63.5133 36.6459 62.1424 36.6459L62.1448 36.6448ZM58.6607 40.7778C58.8125 39.8894 59.1855 39.1747 59.7703 38.6534C60.368 38.1194 61.1105 37.8483 61.9742 37.8483C63.8263 37.8483 64.9912 38.8341 65.4371 40.7778H58.6607V40.7778Z"
      fill="rgba(255,255,255,0.5)" />
  </g>
  <defs>
    <clipPath id="clip0_3070_2526">
      <rect width="107.5" height="12.5" fill="rgba(255,255,255,0.5)"
        transform="translate(4.08594 33.75)" />
    </clipPath>
  </defs>
</svg>