<svg width="60" height="60" viewBox="0 0 60 60" fill="none" xmlns="http://www.w3.org/2000/svg">
<g clip-path="url(#clip0_2_323)">
<path d="M30 60C46.5685 60 60 46.5685 60 30C60 13.4315 46.5685 0 30 0C13.4315 0 0 13.4315 0 30C0 46.5685 13.4315 60 30 60Z" fill="#D9D9D9"/>
<path d="M30 60C46.5685 60 60 46.5685 60 30C60 13.4315 46.5685 0 30 0C13.4315 0 0 13.4315 0 30C0 46.5685 13.4315 60 30 60Z" fill="url(#paint0_linear_2_323)"/>
<path d="M30 60C46.5685 60 60 46.5685 60 30C60 13.4315 46.5685 0 30 0C13.4315 0 0 13.4315 0 30C0 46.5685 13.4315 60 30 60Z" fill="url(#paint1_linear_2_323)"/>
<path fill-rule="evenodd" clip-rule="evenodd" d="M42.4542 14.6061C42.6489 14.764 42.5349 15.072 42.2841 15.072H17.7162C17.4653 15.072 17.3514 14.764 17.5463 14.6061C20.9481 11.8506 25.2813 10.2 30 10.2C34.719 10.2 39.0519 11.8506 42.4542 14.6061Z" fill="white"/>
<path fill-rule="evenodd" clip-rule="evenodd" d="M22.298 35.391C22.1564 35.1888 21.9283 35.0619 21.6815 35.0619H11.3226C11.0852 35.0619 10.9123 35.2872 10.9782 35.5152C13.3666 43.767 20.9789 49.8 30.0003 49.8C39.0219 49.8 46.6338 43.767 49.0221 35.5152C49.0884 35.2872 48.9153 35.0619 48.678 35.0619H38.319C38.0724 35.0619 37.8444 35.1888 37.7025 35.391C36.0024 37.8153 33.1863 39.4005 30.0003 39.4005C26.8142 39.4005 23.9983 37.8153 22.298 35.391Z" fill="white"/>
<path fill-rule="evenodd" clip-rule="evenodd" d="M36.9651 23.6864C37.1085 23.8442 37.3095 23.9393 37.5228 23.9393H48.3591C48.6045 23.9393 48.7788 23.7004 48.6975 23.4687C47.9328 21.2795 46.7943 19.2656 45.3588 17.5034C45.2244 17.338 45.021 17.2444 44.8077 17.2444H15.1925C14.9791 17.2444 14.7761 17.338 14.6413 17.5034C13.2057 19.2656 12.0673 21.2795 11.3026 23.4687C11.2217 23.7004 11.3958 23.9393 11.6412 23.9393H22.4775C22.6907 23.9393 22.8919 23.8442 23.0351 23.6864C24.7551 21.7903 27.2385 20.5995 30.0003 20.5995C32.7618 20.5995 35.2452 21.7903 36.9651 23.6864Z" fill="white"/>
<path fill-rule="evenodd" clip-rule="evenodd" d="M39.3198 32.8938C39.1356 32.8938 39.0045 32.7141 39.0543 32.5368C39.2802 31.7292 39.4008 30.8778 39.4008 29.9982C39.4008 28.7604 39.1617 27.5785 38.7273 26.4962C38.6535 26.3129 38.7855 26.1085 38.9826 26.1085H49.1958C49.3251 26.1085 49.437 26.1999 49.4607 26.3271C49.6836 27.5168 49.8003 28.7441 49.8003 29.9985C49.8003 30.9015 49.7397 31.7907 49.623 32.6616C49.6047 32.7951 49.4904 32.8938 49.3557 32.8938H39.3198ZM20.9458 32.5368C20.9954 32.7141 20.8647 32.8938 20.6804 32.8938H10.6444C10.5098 32.8938 10.3952 32.7951 10.3773 32.6616C10.2602 31.7907 10.1997 30.9015 10.1997 29.9985C10.1997 28.7441 10.3164 27.5168 10.5395 26.3271C10.5633 26.1999 10.6749 26.1085 10.8044 26.1085H21.0173C21.2147 26.1085 21.3466 26.3129 21.2731 26.4962C20.8383 27.5785 20.5991 28.7604 20.5991 29.9982C20.5991 30.8778 20.7199 31.7292 20.9458 32.5368Z" fill="white"/>
</g>
<defs>
<linearGradient id="paint0_linear_2_323" x1="0" y1="0" x2="60" y2="0" gradientUnits="userSpaceOnUse">
<stop stop-color="#AD00FF"/>
<stop offset="0.518594" stop-color="#5D00BA"/>
<stop offset="1" stop-color="#3300FF"/>
</linearGradient>
<linearGradient id="paint1_linear_2_323" x1="30" y1="0" x2="30" y2="60" gradientUnits="userSpaceOnUse">
<stop stop-color="#C750FF"/>
<stop offset="1" stop-color="#5800E8"/>
</linearGradient>
<clipPath id="clip0_2_323">
<rect width="60" height="60" fill="white"/>
</clipPath>
</defs>
</svg>
