<svg xmlns="http://www.w3.org/2000/svg" width="24" height="26" fill="none"><path fill="#EDA320" d="M3.017 13.432v-1.179A5.91 5.91 0 0 1 8.92 6.35h8.855l-.653.653a1.402 1.402 0 1 0 1.983 1.984l3.045-3.045c.257-.269.409-.619.409-.992s-.152-.723-.409-.992L19.105.913a1.402 1.402 0 1 0-1.983 1.984l.653.653H8.92C4.125 3.55.217 7.458.217 12.253v1.179c0 .77.63 1.4 1.4 1.4.77 0 1.4-.619 1.4-1.4Zm19.367-2.264c-.77 0-1.4.63-1.4 1.4v1.179a5.91 5.91 0 0 1-5.904 5.903H6.225l.653-.653a1.403 1.403 0 0 0-1.983-1.984L1.85 20.058a1.366 1.366 0 0 0-.408.992c0 .373.151.723.408.992l3.045 3.045a1.405 1.405 0 0 0 1.983 0 1.401 1.401 0 0 0 0-1.984l-.653-.653h8.855c4.795 0 8.704-3.908 8.704-8.703v-1.179c0-.781-.63-1.4-1.4-1.4Z"/></svg>