<svg width="64" height="80" viewBox="0 0 64 80" fill="none" xmlns="http://www.w3.org/2000/svg">
  <path fill-rule="evenodd" clip-rule="evenodd"
    d="M32.3674 32.946C34.2531 32.3698 36.2436 32.5444 37.9897 33.4698C39.7182 34.3777 41.0103 35.9317 41.5865 37.7999C42.7912 41.6936 40.6087 45.8317 36.7325 47.0365C36.0166 47.2635 35.2833 47.3682 34.55 47.3682C31.2849 47.3682 28.4563 45.2904 27.496 42.1825C26.9198 40.2968 27.0944 38.3063 28.0198 36.5603C28.9452 34.8142 30.4817 33.5222 32.3674 32.946ZM31.0404 38.1492C30.5515 39.0746 30.4468 40.1571 30.7611 41.1698C31.0753 42.1825 31.7563 43.0206 32.6992 43.5095C33.642 43.9984 34.7071 44.1031 35.7198 43.7888C36.7325 43.4746 37.5706 42.7936 38.0595 41.8507C38.5484 40.9079 38.6532 39.8428 38.3389 38.8301C38.0246 37.8174 37.3436 36.9793 36.4008 36.4904C35.4754 36.0015 34.3754 35.8968 33.3801 36.2111C32.3674 36.5253 31.5293 37.2063 31.0404 38.1492Z"
    fill="rgba(255,255,255,0.5)" fill-opacity="0.98" />
  <path fill-rule="evenodd" clip-rule="evenodd"
    d="M49.6881 32.9634C51.5738 32.3872 53.5643 32.5618 55.3103 33.4872C57.0389 34.4126 58.331 35.9491 58.9072 37.8174C60.1119 41.7111 57.9294 45.8492 54.0532 47.0539C53.3373 47.2809 52.604 47.3857 51.8706 47.3857C48.6056 47.3857 45.777 45.3079 44.8167 42.2C44.2405 40.3142 44.4151 38.3238 45.3405 36.5777C46.2659 34.8317 47.8024 33.5396 49.6881 32.9634ZM48.3611 38.1666C47.8722 39.092 47.7675 40.1746 48.0817 41.1873C48.396 42.2 49.077 43.0381 50.0199 43.5269C50.9627 44.0158 52.0278 44.1206 53.0405 43.8063C54.0532 43.492 54.8913 42.8111 55.3802 41.8682C55.8691 40.9254 55.9738 39.8603 55.6595 38.8476C55.3453 37.8349 54.6643 36.9968 53.7214 36.5079C52.796 36.019 51.696 35.9142 50.7008 36.2285C49.6881 36.5428 48.85 37.2238 48.3611 38.1666Z"
    fill="rgba(255,255,255,0.5)" fill-opacity="0.98" />
  <path d="M25.7325 32.7364H22.1356L20.4769 38.1492H24.0214L25.7325 32.7364Z"
    fill="rgba(255,255,255,0.5)" fill-opacity="0.98" />
  <path
    d="M17.5086 37.8872L19.2896 42.0603L19.9356 39.9301H23.4626L21.4721 46.4079C21.315 46.9143 20.8436 47.2635 20.3023 47.2635H18.2944C17.8055 47.2635 17.3515 46.9666 17.1594 46.4952L14.9594 41.1174L12.7769 46.4777C12.6023 46.9317 12.1483 47.246 11.642 47.246H9.61656C9.07529 47.246 8.60386 46.8968 8.44671 46.3904L4.23877 32.7364H7.78322L10.5769 42.0603L12.4277 37.8523C12.8293 36.8047 13.842 36.1238 14.9594 36.1238C16.0944 36.1238 17.1071 36.8222 17.5086 37.8872Z"
    fill="rgba(255,255,255,0.5)" fill-opacity="0.98" />
</svg>