<?xml version="1.0" encoding="UTF-8"?><svg id="Layer_2" xmlns="http://www.w3.org/2000/svg" xmlns:xlink="http://www.w3.org/1999/xlink" viewBox="0 0 265.91 54"><defs><style>.cls-1{fill:url(#linear-gradient);}.cls-2{fill:#fff;}.cls-3{fill:url(#linear-gradient-3);}.cls-4{fill:url(#linear-gradient-2);}</style><linearGradient id="linear-gradient" x1="242.02" y1="-2.26" x2="204.93" y2="50.71" gradientUnits="userSpaceOnUse"><stop offset="0" stop-color="#47fcaa"/><stop offset=".5" stop-color="#00b5ff"/><stop offset=".58" stop-color="#01aefa"/><stop offset=".69" stop-color="#069dee"/><stop offset=".81" stop-color="#0d81da"/><stop offset=".95" stop-color="#185abe"/><stop offset="1" stop-color="#1d4ab3"/></linearGradient><linearGradient id="linear-gradient-2" x1="264.59" y1="-1.49" x2="236.98" y2="50.06" xlink:href="#linear-gradient"/><linearGradient id="linear-gradient-3" x1="277.28" y1="5.31" x2="249.68" y2="56.85" xlink:href="#linear-gradient"/></defs><g id="Layer_6"><path class="cls-2" d="m108.57,0c-14.91,0-27,12.09-27,27s12.09,27,27,27,27-12.09,27-27S123.48,0,108.57,0Zm0,41.5c-8.01,0-14.5-6.49-14.5-14.5s6.49-14.5,14.5-14.5,14.5,6.49,14.5,14.5-6.49,14.5-14.5,14.5Z"/><path class="cls-2" d="m171.57,0c-14.91,0-27,12.09-27,27s12.09,27,27,27,27-12.09,27-27S186.48,0,171.57,0Zm0,41.5c-8.01,0-14.5-6.49-14.5-14.5s6.49-14.5,14.5-14.5,14.5,6.49,14.5,14.5-6.49,14.5-14.5,14.5Z"/><path class="cls-2" d="m0,1h13.07l10.27,33.58,7-17.33c.92-2.27,3.12-3.75,5.56-3.75h4.98c2.45,0,4.65,1.48,5.56,3.75l7,17.33,3.85-12.58h13.07l-8.18,26.75c-.77,2.52-3.1,4.25-5.74,4.25h-4.58c-2.45,0-4.65-1.48-5.56-3.75l-7.91-19.57-7.91,19.57c-.92,2.27-3.12,3.75-5.56,3.75h-4.58c-2.64,0-4.97-1.72-5.74-4.25L0,1Z"/><polygon class="cls-2" points="63.71 1 59.89 13.5 72.96 13.5 76.79 1 63.71 1"/><path class="cls-1" d="m241.91,13.5V1h-22.25c-5.52,0-10,4.48-10,10v42.5h12v-19.5h20.25v-12h-20.25v-8.5h20.25Z"/><rect class="cls-4" x="253.91" y="1" width="12" height="12.5"/><rect class="cls-3" x="253.91" y="22" width="12" height="31.5"/></g></svg>